<?xml version="1.0" encoding="UTF-8" standalone="no"?>
<!-- Generator: Adobe Illustrator 16.0.0, SVG Export Plug-In . SVG Version: 6.00 Build 0)  -->

<svg
   xmlns:pdf="http://ns.adobe.com/pdf/1.3/"
   xmlns:xmpG="http://ns.adobe.com/xap/1.0/g/"
   xmlns:stDim="http://ns.adobe.com/xap/1.0/sType/Dimensions#"
   xmlns:xmpTPg="http://ns.adobe.com/xap/1.0/t/pg/"
   xmlns:illustrator="http://ns.adobe.com/illustrator/1.0/"
   xmlns:stEvt="http://ns.adobe.com/xap/1.0/sType/ResourceEvent#"
   xmlns:stRef="http://ns.adobe.com/xap/1.0/sType/ResourceRef#"
   xmlns:xmpMM="http://ns.adobe.com/xap/1.0/mm/"
   xmlns:xmpGImg="http://ns.adobe.com/xap/1.0/g/img/"
   xmlns:xmp="http://ns.adobe.com/xap/1.0/"
   xmlns:x="adobe:ns:meta/"
   xmlns:dc="http://purl.org/dc/elements/1.1/"
   xmlns:cc="http://creativecommons.org/ns#"
   xmlns:rdf="http://www.w3.org/1999/02/22-rdf-syntax-ns#"
   xmlns:svg="http://www.w3.org/2000/svg"
   xmlns="http://www.w3.org/2000/svg"
   xmlns:sodipodi="http://sodipodi.sourceforge.net/DTD/sodipodi-0.dtd"
   xmlns:inkscape="http://www.inkscape.org/namespaces/inkscape"
   version="1.1"
   id="Layer_4"
   x="0px"
   y="0px"
   width="384.24075"
   height="300.38049"
   viewBox="0 0 384.24075 300.38049"
   xml:space="preserve"
   sodipodi:docname="empty-pages.svg"
   inkscape:version="0.92.1 r15371"><defs
     id="defs203" /><sodipodi:namedview
     pagecolor="#ffffff"
     bordercolor="#666666"
     borderopacity="1"
     objecttolerance="10"
     gridtolerance="10"
     guidetolerance="10"
     inkscape:pageopacity="0"
     inkscape:pageshadow="2"
     inkscape:window-width="1920"
     inkscape:window-height="993"
     id="namedview201"
     showgrid="false"
     inkscape:showpageshadow="false"
     borderlayer="true"
     fit-margin-top="0"
     fit-margin-left="0"
     fit-margin-right="0"
     fit-margin-bottom="0"
     inkscape:zoom="0.42142857"
     inkscape:cx="-53.310264"
     inkscape:cy="154.32132"
     inkscape:window-x="0"
     inkscape:window-y="0"
     inkscape:window-maximized="1"
     inkscape:current-layer="Layer_4" /><metadata
     id="metadata2"><?xpacket begin="" id="W5M0MpCehiHzreSzNTczkc9d"?><x:xmpmeta
       x:xmptk="Adobe XMP Core 5.3-c011 66.145661, 2012/02/06-14:56:27        "><metadata><rdf:RDF><rdf:Description
             rdf:about=""><dc:format>image/svg+xml</dc:format><dc:title><rdf:Alt><rdf:li
                   xml:lang="x-default">illus-blog</rdf:li></rdf:Alt></dc:title></rdf:Description><rdf:Description
             rdf:about=""><xmp:CreatorTool>Adobe Illustrator CS6 (Macintosh)</xmp:CreatorTool><xmp:CreateDate>2018-05-25T11:28:56+02:00</xmp:CreateDate><xmp:ModifyDate>2018-05-25T11:28:56+02:00</xmp:ModifyDate><xmp:MetadataDate>2018-05-25T11:28:56+02:00</xmp:MetadataDate><xmp:Thumbnails><rdf:Alt><rdf:li
                   rdf:parseType="Resource"><xmpGImg:width>256</xmpGImg:width><xmpGImg:height>200</xmpGImg:height><xmpGImg:format>JPEG</xmpGImg:format><xmpGImg:image>/9j/4AAQSkZJRgABAgEASABIAAD/7QAsUGhvdG9zaG9wIDMuMAA4QklNA+0AAAAAABAASAAAAAEA
AQBIAAAAAQAB/+4ADkFkb2JlAGTAAAAAAf/bAIQABgQEBAUEBgUFBgkGBQYJCwgGBggLDAoKCwoK
DBAMDAwMDAwQDA4PEA8ODBMTFBQTExwbGxscHx8fHx8fHx8fHwEHBwcNDA0YEBAYGhURFRofHx8f
Hx8fHx8fHx8fHx8fHx8fHx8fHx8fHx8fHx8fHx8fHx8fHx8fHx8fHx8fHx8f/8AAEQgAyAEAAwER
AAIRAQMRAf/EAaIAAAAHAQEBAQEAAAAAAAAAAAQFAwIGAQAHCAkKCwEAAgIDAQEBAQEAAAAAAAAA
AQACAwQFBgcICQoLEAACAQMDAgQCBgcDBAIGAnMBAgMRBAAFIRIxQVEGE2EicYEUMpGhBxWxQiPB
UtHhMxZi8CRygvElQzRTkqKyY3PCNUQnk6OzNhdUZHTD0uIIJoMJChgZhJRFRqS0VtNVKBry4/PE
1OT0ZXWFlaW1xdXl9WZ2hpamtsbW5vY3R1dnd4eXp7fH1+f3OEhYaHiImKi4yNjo+Ck5SVlpeYmZ
qbnJ2en5KjpKWmp6ipqqusra6voRAAICAQIDBQUEBQYECAMDbQEAAhEDBCESMUEFURNhIgZxgZEy
obHwFMHR4SNCFVJicvEzJDRDghaSUyWiY7LCB3PSNeJEgxdUkwgJChgZJjZFGidkdFU38qOzwygp
0+PzhJSktMTU5PRldYWVpbXF1eX1RlZmdoaWprbG1ub2R1dnd4eXp7fH1+f3OEhYaHiImKi4yNjo
+DlJWWl5iZmpucnZ6fkqOkpaanqKmqq6ytrq+v/aAAwDAQACEQMRAD8A9U4q7FXYqtkcRxtIeiAs
foFcEjQtMRZpjh82T12t1A7AsTmqPaJ7nafycO9LtQ1We8uEn/umjFFCk7b1qMxc2olOQPKnKw6c
QiRztO9E171yLa6IE3SOToG9j75sNJrOL0y5uBqtJw+qPJO82Dr3Yq7FXYq7FXYq7FXYq7FXYq7F
XnOt/m8+lavd6c+j+obWVoxJ9Z48gD8LU9I0qN6VzZ4uzuOIlxc/L9rpM/bHhzMeDke/9ic+SPzA
i80T3UBs/qctuquq+r6vNWJDH7CU4mn35RqtJ4QBu7cnQ9ojOSK4a87ZbmG7J2KuxV2KuxV2KuxV
2KuxV2KuxV2KuxV2KuxVSvATaTgdTGwH/AnIZfpPuZ4vqHvYDnNPRuxVE2FjNeXCxRbd2fso8ctw
4jklQas2UQjZZxEnCNU5F+IA5NuTTuc6KIoU8/I2bXYUOxV2KuxV2KsH876terfixikaOBEDOFNO
Rbxp2znO19TMT4AajT0PZOmhwcZFm0l03zDqunlvQmLIwI9OSrKCf2gD0IzXafXZcX0n5uwz6LHl
5hROsaqZ/rBu5fWrXlzP6ulPbK/zWXi4uI372f5bHw8PCK9z0nQb+W/0i3upgBLICHpsCVYrX6aZ
12izHLijI8y8prMIx5TEcgj8ynGYT5k/K3Tdc1ifU3vJbeSfjzjRVK1RQld/ELmdh10scRGnVans
qOWZnZFq3lX8uLXy5qn6Qt76WZmjaJ4nVQCrEHqPdQcGfWnJHhIZaTs0YJ8QkSym9uxawiQryqQt
K065hOzQQ16PvCfvGGlXxa1FJKkfpsOZC1JG1TTGlTHArsVdirsVdirsVdirsVdirsVdirsVcQCK
HcHFUCdD0on/AHnX72/rmN+Uxdzkfm8nehL/AMtwTNF9W4wBaiTYmo8euU5tCJVw7N2HXGN8W6Y2
Nhb2UPpQj3Zz1Y++ZWHDHGKDjZc0shsojLWp2KpZqfmfy9pfIX+oQQOvWIuGk/4Bav8AhlsME58g
XHy6rFj+qQC3y/5n0jX4p5dNkaSO3cRuzKUqSKggHemHNgljri6rp9VDMCYdE1ylyHYqxDzxos8r
LqUC81ROFwo6gAkh/wAd80PbGklL95HoN/1u87J1QH7uXw/UwrOed+i9M0y51G7S2t1qzbu/ZV7s
cv0+nllnwxadRnjijxSep2VpFZ2kVtF/dwqFFepp3PzztMWIY4iI5B47LkM5GR5lWyxrdirsVS7X
T/oiD/iwfqOEKkeFCT6pql9Z3gWIqFoHWor3/szQ9pa/LhycMaqnedn6LFmx3K7tM/LvmzUbzVYr
W7ZDHKGA4rx+ICo/Vleg7SyZMojOqLPXdnY8eIyjdhmWdA6F2KuxV2KuxV2KuxV2KuxV2KoTVNX0
zSrdbjUbhLaF3EayP0LEEgfcpycMcpmoi2rLmhjFyNBKH/MPyWhAOqxGv8odv1KcuGjy/wA1xz2j
gH8QUpPzM8jpTlqimv8ALFM3/EUOEaLL/N+5ie1NOP4vsP6mSxyJLGkkZ5I4DIw7gioOYxFOcDYs
LsCXYq8S/NDUfMNr5lubJ7+f6hIqy28IconBx04rQGjhhvm90MIGANC3le1cmWOUx4jw9GC5nuoe
j/ktqscGrXumyNQ3kayQg93hJqB78XJ+jNZ2ljuIl3O77EygTMD/ABD7nsGaZ6Z2KuIBFD0xVi2q
eRre4ulls5BbRuf30ZFQB4p/TNLqex4zlcDwjr+x3On7XlGNTHEen7U+0zSrPTbcQWqUHV3O7MfF
jmz0+mhhjwxDrdRqJ5ZXJXuZTFA8gHIoK0y9oSr9PTf76X7zhpC39O3P++0/H+uNJTHTbuS6gaSQ
AEMV+GtKUB7k+OBUPrp/0eMd+f8ADCFSTChD3Wn2t0ytMpYqKChI/VmLqNFjzEGY5OVg1mTECInm
nOneV9Gi+r3ccTLMnFwebbMN+lcoh2ZhhISA3HmW2faOacTEnY+QTzM9wXYq7FXYq7FXYq7FXYq7
FXYqwb844+XlJGpX07uNq+Hwutf+GzP7OP7z4Op7aH7n/OH6XiOb15RekMz/AGI2b5AnKp58cfqk
B8W6GnyT+mMj7gX0XomtaZ+h9OWS7hEzW8IaMuoYMY12K9Qa5ymXVYuMjijz7w97p9NlOOJMZfSO
h7k5yxi7FXmX516TztLDVkXeJ2tpj34uOafQCrffm07MybmPxdD25huMZ92zzHRfLt3rFwWS6X04
LqIXNiPgc2jBeUiyDevPkKeA6jMbtXtHJgmYjYGOx83K7E7KwZ8Ymd5A+oMp07yXfWWq6ONOugmq
G9lSO5dmKNEEluUMiAU5qkfD4RRu/tg6LtSeTIRPeBjy8/J2Wv7Gx48cTiAjOMtj5eb3FeXEcqcq
fFTpXJsg3irsVdirsVUrv/eSb/jG36jirF8kh2Kp5oX+8j/8ZD+oYClMGRW+0AfmK4FdwT+Ufdir
eKuxV2KuxV2KuxV2KuxV2KuxV2KuxVh35spy8l3DVpwlhb5/GF/jmb2ef3odZ2uP3B94ePeWn46o
o/nRl/j/AAyHtRDi0hP82QP6P0tHsjk4daB/OjIfp/Qy7PNn1VcrMrBlNGU1B9xiDRtSLevwyrLD
HKv2ZFDD5MK53sJcQB73hpR4SR3L8kxS/wAwaJa65pM+mXRZYZ+NXSnJSjBgVrXfbLMOU45CQaNR
gGWBgeRY3P5C8v6PbwT6bAY7pCY3uHdmd0cVIbt1RTQADKe0Dk1EaJHNu7NxYtKTwg7o3y9aKmoB
5CCwVvT9m6V+6uYWm0Zxy4iXP1OrGSPCAyfM9wUv1jVGsIo2VA7SEihNKUGYuq1HhgGubk6bB4hO
6SP5p1FvsrGnyBJ/E5gHtDJ5OeNBDzWQa5qkt1CjzfAzqCoVRsSPAZGGrySkAT1ZT0mMRJA6Muzd
ulQ+oNxspj/kkfftirGskh2KpxoL/BKngQfv2/hgKU1wKsnuILeF57iRIYYxV5ZGCqo8SxoBhAJN
BEpCIsmgw/zP+Z+h6ZYc9Mmi1G9kYrHEjVRadWcjt4Dvmbg0M5H1ekOs1XamPHH0ESkxDS/zn1qO
5rqVrDcWxrVYQY3U9qElh94zMn2bEj0mi63F23kB9YBHkybQ/wA3tC1C7S2vIJNPaQhUldleKp6c
mHEr91MxcvZ04iwbc/B2xjnKpDh+5naOjqGRgynoQajNe7cG28VdirsVdirsVdirsVdiqA1zRbPW
tLm0285C3m4lihAYcGDihIPdcsxZTCXEObTnwRywMJcixO8/LPy1pljPe2aTG6t42aN3kJFQNyQA
B0rlPauqyZdPOJ5V927Lsns/Fh1MJxuwe/v2YtnBPfrlVmYKoLMegG5xAvkpNPR/KFxdyaQkNzDJ
E9ueCM6leSfskV8Omdd2XORxASBHD9zynacIjLcSDxfenebF17sVQmrJzsZPFaMPoOIVJdPk4XsL
f5QB/wBlt/HJIZLkUsd82v8AFbJ4ByfpoM1faR+ke92fZw+osezVuzV7AE31uB1MqD/hhlmH6x7w
15foPuLPM6R51p0R1KuoZT1UioxVTFrbDpCg/wBiP6YqvEUQ6Io+gYquAA2GwxV2KvH/AM5dcupN
Wh0dXK2kEazSIOjyOTQnx4r0+nNz2biAjxdXme2s5MxDoBbzjNm6R2KuxVnf5R69dWnmJNLLk2d+
rj0yfhWVFLhx4EheOa/tDEDDi6h2/Y+oMcvB/DL73tmaN6p2KuxV2KuxV2KuxV2KuxVZPDHPBJDI
KxyqUcezChyM4CQIPIsoSMSCOYS638r6DB9mzRj4yVf8GJGYkOzsEeUR8d/vcqfaGaXOR+GyYw28
EK8YY1jXwRQo/DMuMIx5CnFlOUuZtfkmLsVdiqyaP1IXj/nUj7xirFgSjA9Cp/EZJDKWmjSAzuwW
JV5sx6BQKk/dkUvnrzZ+Yfmm81mLUYyYbOOQehYArxMXI1jam7SFAWZmPFe3jk8ujhOO4372WLUy
gduT0G1uIrm2iuYqmKZFkjJFDxcVFQfY5y0o8JIPR6KMrFpjosfPVLceDcv+BBb+GXaUXkDTqjWM
s2zoHQpTDda3cy3Zg+rLFDM0MaSLJyPGm5YN3r4ZKgjdVL+YgBSKzc9yZJV/Dg2Oy7uJ8xECi2aH
9oFpW+74Vx2XdW0q8lu7T1JQqzJJLDIq1pyikaPau+/GuAilCLwJed/mv5OS9sp/MUMqxS6dbSSX
iPWjwQK0hK0B+JRX55sNHq/D9J5Oo7R7OOYiUT6nzffanqmopzhkSysnJWL1JBG0lOu/X+GZOTLP
INjwxaMGlxYTUgZz60Lr8fNLLHU77S734mYqppNCWqpHem9K+ByjHlljk52fS48+Pb4FnsM0c0SS
xNyjkAZWHgc3MZAiw8hOBiTE8wzT8qNOlu/OFvOB+6skkmlPbdTGo/4J8w9fOsRHe7HsjGZZwf5u
73bNA9c7FXYq7FXYq7FXYq7FUPqGo2Om2U19fzpbWdupeaeQ8VVR3JxV55ff85CflzDZXk1pdyXd
zboWt7X0ZYvXbYBVdkou53J7dsn4ZRbzS3/5yc83jUlln06yfTy3x2qLIsnCv7Mpc/F7lae2T8MI
t15/zkx5tOtNPaWdqukLIfTspFYyNFXbnKG2encCnscfDC2ye3/5yi0d9USGbQ5odNZwrXnrq0qq
f2jAEpt4CTB4abet6f5r8r6lc/VdP1iyvLrc/V4LmKWTbr8CMW2yuilNMCuxVjWoReleSr2J5D5N
vkkMW86fmRb22lvounUmvJY2gupv2IlIKlVp1en3ZsNJojL1S5Om1/agh6Iby7+5hnk3y8fM+sw2
MsbnT4wZdSkUfCI1+zHyO1ZWotOvHl4ZHWQ4LjfNy+z9T4sRIjlze2J5a0tequ/zY/wpmjGhxu7O
uyIu20uwtnEkMIRxsGqSfxJy7Hp4QNgNM9ROQolFZc0pdpRIu9UjJ3S6BX/VeCJv1k5I9EBMcil2
KpZZH6trV7anZLoLeQe5oIpgP9UqrH/WyR5I6pnkUofUrC31HTrrT7kVt7yGSCYDqUlUo34HFXxj
5g8uTaD5ku9E8wSyRGxVkt5EWodaVhZR/K4NfwNMyxPi5tQgI3Q5scwMk70DzC2n/uJwXtSainVC
e49vbMvTang2PJ1faHZwzeqO0/vfS/5GLZT+V7nU7ejNdXLJ6lCCUiVQFofBmbKNfmE5CuQbOy9J
LDA8Q9RL0fMF2bsVdirsVdirsVdirGvzC882Hkzy7Jq91GbiQusNpaqwUyysCQORrQAKSTTJRjZV
80effzl8z+c9NXTL6C2tLFJhPwtlkDMVBCiRndwwHKvQb5dGADG2BZJDsVdirsVROnX09hqFtfQM
yTWsqTRsp4sGRgwoe3TFX19+WH5k2fnrSJ7tLY2V5ZyCK7tS/qAchVHVqLVWoe3b6cx5RpkCzLIp
eS/mT58ie6fTtHlPNAY7u7XahBNUjP62+7Nto9F/FP5PP9pdp84Yz7z+pgWhaHf63qcVhZJylkNW
c14og+07kdAM2WXKIRsukwYJZZiMX0L5d0Cy0LSodOtB8EfxSSHZpJD9p29z+rbOczZTklxF7TTa
eOGAjFHzCUwuISFlKn02YVUNTYkeFcrHPduldbc3z/rPnvzleSyQXWoSw8GZHhgpCAQaFTw4k/ST
nRY9LijuA8bm1+eRIMiPds9b/LXUrq+8p2v1pXE9sTAWkDAuq7ow5dRwIFfbNPrYCOQ11ej7Myme
EXzGydT6UJLtrqG6ntZZAokERj4twrxJEiPvvmMJOfS1NLvlNTq92/sUtP4QDGx3LTm0y9LA/pe7
AHVQtpQ/8kK42O5aai0RFu4LuW7uLia35el6rLQc14tsioDtjxLSY5FLsVeR/mx+S2q+cdfOtWeo
xQmOzEMdrKjEtJGXZQGBoFYt17dd8sjOkEPmzUtNv9MvprDUIHtry3YpNBIKMrD/AD2PfLmLUum6
jDZQX0ttLHZXLMlvcsjCORkpyCMRRqV3pir1b8ivzCvdHjvfLyxpIk7fW7ZpKkK4ASVaAj7ShSN+
x8c1namonhx8cQDv1c/s/TwzT4ZEjZ7JZ/mBciSl5bI0Z6mGqkD5MWr+GaXF23K/XEV5O1y9ixr0
SN+bLNO1Sy1GD1rWQOv7S9GU+DDtm8waiGWNxLpM+nnilUgisvaXYq7FXYqlPmvzLp/lny/ea3f1
NvZoGKJ9p3YhURfdmYDCBavlX8wvzb8wedoEtL63t7axgn9e3ihDF1PEoAzsx5bN/KMvjGmNsGyS
HYq7FXYq7FXYqy38t/O/mLyvr0H6Jl/c308Ed7aFVKzqGKqpLCqn941CCMjIWkPf/wAzPzDMHqaH
o8tJ91vrpP2Af91ow/a/mPbp16Zmi0d+uXwdH2p2jX7uB36n9Dy7T9Pu9Qu47S0jMs8n2VHgNyT4
ADrm1nMRFnk6DFilkkIxFkvZvImhWug8Ilo9zOONzPT7RO4Ar+yD0zQanUHKb6PYaLRxwRr+I8yz
jMVzXYql1v5b0G3u5byKwgW7mcySTlAzl2NSQxqRU+GWnNMiiTTRHTY4yMhEWUxypvdirsVSy11K
t9LE5+B2IjPgRtT6cNKmeBXYq7FXYqhLzR9JvpEkvbK3upI/7t5okkZaeBYGmNqwH85tOtdd0RPL
w4xzKy3MU/EH02WqoAP8oFgfbNZrO0/AyRAF9/udnouz/GgZE13POtA8p6d5TsLi9Nbu+EZ5y0Ck
+EcYNacmoPfNPqtdPVTEfpjf4JdvptHDTRMvql+NgyKwjvUgBvZRLcP8ThFCohI+wncgeLGua/KY
k+kUHOxiQHqNlOND1WXTNQjuFJ9MnjMn8yHr9I6jLtHqThyCQ5dfc06vTjLAx69Pe9TR1dQ6kMrA
FWHQg9DnaAgiw8cRRot4UOxV2KvGP+ck/ODWOiW3lmO2SX9LD1p55K/u0gkVk9OhHxFx1PbtvtZj
HVBfNuXMXYq7FXYq7FXYq7FXYq9L8qadql7aWNikLy30vwJF+11PGtelF616ZusUuHGDLanj9XEZ
NQRj3s/2vofyZ5GsfL2nsrUm1G4XjdXNOx/YSvRR+P6tLqdUcp/ovSaHQxwR75HmVnxwzeDxt+Kn
MdzmRz3sMNi949TEieoQoqaUrtlWXIIRMjyDZixmchEcywe98zajfMZI5jbwD7KIxjVf9Zx8bt7L
nPz1s8u4NR99Ae88yfIO+hooY9quXzJ9w5AeZQv6b1e2ImjvZancLKzMrD2Ry5p7mmUS1OSHqEj8
evuBs/E03R0+OfpMR8OnvIofAWyjTvOmkzWsbXkot7o7SR8XK18QQCKH55tcHa2KURxnhl8XWZ+y
ssZHgHFH4J9FcQTQiaJ1kiYVDqagj6M2cJiQsGw62UDE0RRQU+s2qgiOrtTYgUFfpydMUiqa17+O
FCMivNQnkWJZW5MaD/MYFZAi8UValqCnI9TgS3iqXa15j0LQ7cXGr38NlEfsmZwpalK8V6tSvYZK
MCeTCUwDRPNItX/MfSU0NtQ8uKPMl25CW1jYuHZnYgfHTkUArU/DX2yieaMZiBPqk5EMEpRMwPSG
Na/dS3Wr3E0sZhkJVXhYhihVQpUlSVNCO22cl2jPizy9/wB2z1XZ8OHDH3fekGskfV4I+8lzbgf7
GZXP/Cqcp0/Mn+jL7i3Z+QH9IfejsobnYq9J8nX31rRI1Y1ktiYWr4Ddf+FIGdb2Vm48IHWOzyna
eHgzHulunebJ17sVdirCfze8nxeZPJl6kOnpfavaxmTTCaiRXqpcRkEGrKv2ehNMlA0UF8jXumal
YMFvrSa1Ziyqs8bRklacgOQHSu+ZFsULirsVdireKtYq7FUy0PQr/Wr1bSzQtIxVdgTuxoAAOpPY
ZbixGfkA42p1McQF7k8h3vrj8u/IcHlnTUe4pLq0sarPLseCgf3aH/iR7n6Mr1WpOQ0PpDXodEMV
yP1y5+XkGX5iOwY7qsfC+kp0ajD6Rv8AjhCFGTXbq1txboin4SFkO5H0dMwNZqJYzQHNztJp45Ny
eTDrIXV3bLetZtYXJZ+VpMUcijFQ3wkruBUZoc2DglcCD932u9xZuKNTBC0Mz3KiRTRTykDbseO7
VJ9hmMJGWQX03Pea3NuQY8MDXXYfHYUulhXqRQgMG7bqik7f6xyWTEPv+yI/Sxx5T932yP6GSeRb
uWLULrTixMVC6jwZGCmnzBzZdkTMcksfT9Tre1YCWOOTr+tkOrWMAia4X4HFKgdGqaZ0QdCk6qzG
igknoBhQr2crW10kjAgA0ao7HrirJcil2Kvm/wDPhtauPN8txHb3EunW0SQRzxxqqKUHKQCUhiKM
5r0zM0uYShUehN+/73A1WAjJc+oFXdV8Nixz8kfOQ8uedWM8c01nqEMkM8cQ9SQMv7xZOOxYrwIN
N6E0B6Zj6iUYjil06+9z8MJSqMXq+pahp9/qd3c2FwlzBJIWDoenLejA0KkdCCK5w+vjWaR6E29j
oZXiiOoFJDczrd65a2cJ5CwrdXZG4VmRo4oyfFubNT/JwQjwYjI/xbD7yf0fFMpcWQRH8O5+4D9P
wTOeaOCGSaVuMcSl3Y9lUVJzGjEyIA5lyJSAFlD6RLdTaZbz3Z/fzJ6rrQDj6nxBNv5AeP0ZZqIx
EyI8ht8uvxa8BkYAy5lmnkG99PUJrRjRbhOS/wCtH2H+xJzadi5ayGP84fc6ztnFcBLuP3s7zpnn
HYq7FXYqkPnDyR5d83aellrVv6qRMXt5kYpLExFCUYePcHY+GEGlYDrP/ONfk2506K30q5uNOvIm
YteOfrHqBgNnjJjHw0248feuTGQopiHnn8k/KPlnQbWmo3c+szSMFc+msbqKciY6EqEHT4up+7K0
uI5ZeQcDX6wYIg85FiEHlvR4o0QwCQpvzfck+9KDNtHS4wOTzs+0s0iTxVfciX0vTnlErW0ZkHRu
I7dMsOKBN0HHGqygUJGvehj5a0UytIbcVatV5MF38ADlf5XHd05H8p56ri+5fbaBpFuG4Wytz2bn
8e3+yrhjp4R6MMmvzT5yO3dt9z3L8q/y6t9EtV1W8tlivplrb2/ED0UYfaI/34w+kDbxzU6zUA+i
H0/e7/s/SSH7zJvM8r6B6LmA7Z2KpNryUlik8VK/ca/xwhUmuY+cRp9pdxmNrMPHDbmHJ0mXgnvy
KXZz7vUrJ9W7mI604r9LBP45iQ9U5V7vmRH9LlT9MI/jkCf0NyMGilYftepIP9lIi/wyycrjI9/E
fnKIa4RqUR3cI+UZFPfJsTHzHdt0CJJX5mQDM7s6J/NT8uL73C7Ql/g0PPh+5mN/bvcQCJCFqw5E
+AzoXQN2ljBbLRBVj1c9Tiqv1xVCaxqUel6RfanIjSRWNvLcvGn2mWFC5Vfc8dsQr5N80eZvMnnu
6m1HWtVt9KsI6vp9jcPMsVBvxhSJJSz7buwHzHTMng4QDXNqGSMiQDuE/wDyy/N7UIoP8JeYYTrO
k6gDaxGVz6kayDgYyxDcoyDSnVe22Y2ql4cDMC63cnT4xkmIk1ab6P8Al/oOgaxNqVjczTxMhFvH
cqqvAD9qrqSH225UHfbOZ7R7U8eIhEUOr0Og7O8GRlI2eibXmjaTfMJbi2SSWlBOBxkp7SLRqfTm
sx6jJDYE13dPk7GeCE9yPx71Ww06xsIfRs4VhjJLMF6lj1Zidyfc5HLllkNyNlljxRgKiKQGsFb6
6h0Zd0lHr39O1uh2Q/8AGV/h/wBXll+n9ETl7to+/v8AgPtppz+uQx/E+79v3Wm+YjkovSb36lqV
tdVIWJwXp14nZh/wJOX6bL4eSMu4tOpxeJjMe8PWFZXUOpDKwBVhuCD3ztwQRYeLIrYt4UOxV2Ku
xV2Kvn/8xtdOr+abpkflbWh+rW9OlIzRmH+s9T8s6LR4uDGO87vG9pajxMx7hsGO3FtNblBKvEyI
sqj/ACXFVP0jfMkSBcKUSOalhYuxVkHkLT49Q836ZbyqGj9Uyup3BEKmSh9jwzH1c+HGS5nZ+MTz
xB7/ALt30PnNvauxV2KpdriVtkf+V/wIOEKkeFCDvLdVjkmU8eKliPkK5q9ZoxRmDVC3Z6TVmxA7
2aY/ZbEueodT9Cguf+I5z2l7/MfZZ/Q77Vd3kftofpXBSbcD/ikA/wCymr+rJcPor+h982HF67/p
/dBl3kqD99qd0R9ub01PyJY/8SGbrs2F5Ms++Tp+0Z+jHHuiynNu6p2KsX/MPzRqHlzRoryxijkk
mnEBaWpVeSM1aArU/DmXo8EckqPc6/tHVSwQEojmaeW3nmDzZrcKve6q6W0wJ9GH92tAStCq8Aen
c5HP2jh085QjjuUe/wBwPn39zRg0Go1WOM55OGE+73kf0R072TeSPKvkzWbS40+/0eC99Ic2urjh
JNV/hIV03jHspGYQ7Qy5snrAG21cX6QLdrh7OxafH+7JO+98P+9Jpx/5x/8AK1hqKanoxkWeElor
W4kLxq3Yq1OVR25VyjX48uWBjAgX9vxc7RZceOYlME/juQ97YXllKYbqFon8GGx+R6EfLOQy4Z4z
UhRerxZoZBcTYSdtMngYvp1x9XB3NtIvqQV6/CtVZP8AYtT2yYzCW0xfnyP7fjv5sfCI+g15dP2f
D5IiPTvOlzYTXUFlapBCQJLozSSAeJWIRIWp3HMU8cycekhKByeoxj5D77P3ONk1UozGP0iR8z91
fpUtL0tLFJGaRri7uG9S6unADSNSg2Gyqo2VR0zEz5uMjaojkO78dXKw4eC97keZTGKCWU0Ra+J7
DK4QMuTOUxHmmEGmRrvKeZ/lGwzLhpgObiz1BPJmfljUOcRsnO8QrD/qdOP0Z0HZ+axwHpydDr8N
HjHXmnubJ1zsVdirsVSbzjrX6G8t318ppMsfC38fVk+FPuJrl+mxccwHF1ufwsUpdenveA6FpU2s
azaadFXncyBWYblV6u3+xUE50OXIIRMu547T4TkmIjqU0/MWOGLzhfwwLwhgEEMaeCx28aAfhlWj
JOIE+f3uR2kAM8gOQr7gxvMlwXYqy/8AKn/lNrP/AFJv+TTZh6/+6Pwdl2T/AH4+P3PeM59692Ku
xVCaqnKxk8RQj6CMQrHckhD38UstnLHEKuwoB0+eY2sxynilGPMuTpJxhljKXIMZa3u7UkyxMq0Z
an7PxKV6jbvnIywZcJ9UT1924p6mObFlHpkOnv2Nr45kYkVovGJN/YqW/HJwyg7dKiPtFsJ4iPfc
j9hpnvk9VGkF1IJlmldiPHlT9Qzo+zh+7J/nSkftef7QP7wD+bED7E7zPcF2KsF/OOLn5SjalfTu
42+VUdf+Nsz+zj+8+Dqe2heH/OH6Xm9hFLHYWwdGQ8W+0Cv7bHvTxzQdqEHU5KN2R/uYjz7nc9kx
kNLjBFUJf7uR8u96B+VxrdX29aRp3r3/ANd/4ZXohWQ7fw91df6sf0+9zNRK8Y3vfvvp/Xn+j3PQ
s2jgKdxa29zEYriJZYz1VwCPxyGTHGYqQsM4ZJQNxNFLB5R8vB+X1QV60LyEfdyzDHZmnu+H7T+t
y/5Sz19X2BNI4IY4hDHGqRAUEagBQPCmZsYACgNnDlMk2TuwPW9H02HVZFtwRGKFoq/CGO5A70zm
tXpMccp4eXc9HpdVkljHFzUlVVUKoAA6AZEADkyJtvChXsblrW7inH7DfF7qdiPuy3Dk4JCTXlx8
cSGeAggEGoO4OdG867FXYq7FXk350a8JLi00SJqiH/SLkD+dhSMfQtT9Objs3FQM/g8523qLIxjp
uf0Kv5MaBvda7Muw/wBGtCfoMjfqAPzyPaWblAe9l2Jp+eQ+4fpYR53l9Xzdq7eFzIm3+QeP8Mz9
KKxx9zqtcbzT96R5e4jsVZp+UNtNcebkuIVLwWiSC4kXdULoVVWI2BbtXMDX5I+GRe7t+yMM/GEq
PDvu9zzRPVOxV2KqV4vK1mXxRqfdirF8kh2Ku64qg59IsZ6kxcG7snwn+mYGbs3Dk5ij5bObh7Qz
Y+Rsee6ZaPONNRYlq0AFCD161rmThwjHAQHIOPmzHJMyPMppJrsAH7uNmPvQD+OW01oWTW7tvsBU
HsKn8caQleqTz3EI9Zy4VgwU9KjoadMwtffh2HN0NHJuHm91Za7p8k9xf/VrhZZZH+tetccynVVM
SW0vEIu2zUzWTjHJXCTHaqof8UPudhC4WZ+rfnf/AB0vQ/yysbo6d+lpUEUN6v7hCXJaNWPCT94s
bBXG4qozN0WjlikSSNx3V+Pm4ms1UMkRGIOx77+9m2bJ1zsVdirsVYFeSGS7mkO/J2P3nObyyuRP
m9FijUQPJRytsdirsVZto0xm0y3cmpC8T/sTx/hnQaWXFjBdBqY8OQhG5kNDyvyh+b9w3nG68lea
oo7fUoJ3trTUY/gjuGVqRh0OytItCpBoSaUGTMNrCLeieYNZg0bRrrU5hyS3SoT+ZyeKL9LEDDhx
mchEdWrUZhigZno+e0XVPMmvhf77UNQm3Parbk+yqv3AZ0Z4cUPIPFgTz5O+Ui+h9F0q30nSrbTr
cfurZAlehY9WY+7NU5zeXIZyMj1e1wYRjgIjo+UfzD81XMPnfXYLLgYY76dfUcVYsJDz6ECnOtNs
2MNZMRAFbB10uycUpGRJ3NsZbzXrJG0ir7hF/jXE6zIkdk4B0PzQVzq2pXIpNcuynqtaL9woMqlm
nLmXKx6TFD6Yh7Z/zixKRd+Y4aijx2jkd6o0o/42zFyuUH0FlSXYq7FWmAZSp6EUxVihBBIPUbHJ
IaxV2KovS+BvFRxVXDKQfcYCqJn0OUOTC4KHoG2IxtKxdDuifidFHzJ/hjaETHoUQ/vJWb/VAH9c
bSr/AKI0/jxaLkD15En+OQnASFHkyhMxNjmoN5Y8utcLcyadbyzx0EcssayMtDX4S/Lj9GDHjjAV
EUynllLmUzybW7FXYq7FXYq89JJJJ6nfOYL0oawJXFGCqx6NWn0YSEArcCWXeWWJ0wD+V2H6j/HN
3oD+7+LpdcP3nwTXM1w3nP5geQdHbXLfzzSGOXTUZ9TSZarLHGh9ORAAf38bU4+OwqKDBkiZQMQa
JZ4pCMgSLDEPNP5hXuv2T2jskGnwn9+ikFiyANWVgSAR1oNszdLE46JNycTVwjmBjXpLPfy28jxa
LZrql2C2pXkakI68TBG3xcKHfmf2vu+Z1WrOTbkHF0PZ0cBMruR+xnGYTsnwt5gn9fXtSn5c/Vup
35ePKRjXMkMENBbPNFcSKaC2jEr+4MiR/rkGFVDFXun/ADi1Gp1LzBLx+JYbZQ3gGaQkfTxyrIyD
6FypLsVdirsVeX/m5PcQanp7QyPFWF6lGK1Ib2zIwDYtc2CrrGrLXje3C160lcfxy/hHcwsqi6/r
aigv5/pkY/rODgHctlOPKfmvVLbzBZG6uXmtpJVilSQ8gBJ8PLfpxrXIzxikxkbe3ZhtzsVdirsV
dirsVdirsVdirsVeeuAHYDoCRnMEbvSjk0ASaDrgSmerWZtbWxjbaTgxce5IP4VpmZqcXBGI604m
nyccpHolmYblsu8s0/Rgp15tX57Zu9B/d/F0uu/vPgmuZrhqdzbW11byW1zEk9vKpSWGVQ6Mp6hl
aoI+eKvMYPyWstIuxf217Jd2lqyzxaY8S0JiYuoJQ/GoPxceFWPUkbYNRlycHo5s8EYcXr5PRtI1
FdS06C9WJ4RMtfTlUqwoadD28MNEc+bE105IzFD4LupVluZpVqFkdmAPWjGuZTBk/lTTHuvKPnK5
XpaWloae7XsR/wCIo2RJ3CWJ5JD6H/5xasyml6/e02mnt4a/8YUdv+Z2VZGQe5ZUl2KuxV2KvN/z
kgrFpc4/ZaaNj8whH6jmRgPNryPMsyGt2Kr7evrx0IB5LQnp174lX0i7oiF3YKiirMTQAe5Oa9yG
L6x+ZHlnTiUSY3sw/YtqMo+bkhPuJyyOIliZhh+p/m7rE1VsLWK0U9Hesr/RXiv/AApy4YB1YGbD
PzY81eYpvIelG5vZ1e+u5PjjPpLJHCGDKwj48gGZeuYsYyGY/wAynJJh4Q/n29R/I++nvPyw0aWe
Zp5kFxG7uSzUS5kVFqfBOIGSnzagzvIpdirsVdiqy4lEUEkp6RqW+4VyM5cMSe5lCNkB5/nMvSIn
TeP6QtuXT1U/4kMuwf3kfe1Z/oPuTjzau9q3+uP+I5ndpD6fi4PZx+r4MezVuzZP5UmBtZoe6Py+
hhT/AI1zb9nS9JHm6ntCPqB8k8zYuvdirsVdiqXeZNQXTvL2qagx4i0tJ56/8Y42btTwwhXwvmSw
e0/lH5eaf8pfPl6Vr9cgkhi8S1nbtMOtP2pRlcjuEh4tliH1H/zjZaej+XsstN7m/mkr7Kkcf/Gm
UZObIPVsgl2KuxV2KsK/Nq29Ty1FMOsFyjE/5LKy/rIy7Cd2E+Tx/MpqbVWZgqirMaAe5xVrFUVe
arql6qreXc1wqUCLLIzgU22DE4BEBNoXCh2Ks81b8sv8aflrolnFcrZ31m8lxbzSKXUrK780PHcB
qg19sxZSqRbojZnPkLyonlTypYaEJvrDWocyzhePN5HaRjSp2Bag9sqkbLJkGBXYq7FXYqlfmO49
HTWUfamIQfLqfwGYeunw4673L0UOLJ7mIZo3dq9l/vZB/wAZE/4kMsxfWPeGvL9B9zJvMtsZdP8A
UUVaFgx/1Tsc2+vx8UL7nVaGdTrvYlmkdym3lmf09S9MnaZSv0j4h+rM3QTrJXe4WuheO+5lubt0
zsVdirsVee/n1rQ0z8tdQQNxl1F4rKI/8ZG5uPpijfJwG6C+SMvYvr38t/La6T+U1nYTKVku7KW4
uR0bldK0lD7qrBfozHkd2QfIWZDF9d/kRbeh+VujV+1L9Ykb/ZXMlP8AhQMonzZBn2QS7FXYq7FU
g8+Wn1rylqSAVKRiUe3pMHP4Lk8ZqQYy5PCczWlfBM8M0cyfbjYOvzU1GKpv5t0T9Faw6RKRZXAF
xZsenpSbhf8AY9MhCVhMhSS5NCva2F9dvwtLeW4f+WJGc/8ACg4CQFpkmm/ll5pvKNLClnGf2p2o
af6i8m++mVnNEMhAvYNJ09NO0y1sUbkttEsXOlORUULU9zvmLI2bbQEVgS7FXYq7FXYqx3zbJvbR
/wCsx/ADNX2lL6Q7Ps4cyx7NW7NMNCtzNqcIptGfUb/Y7j8aZk6SHFkHlu42rnw4z5sydFdGRhVW
BVh7HbN8RYp0YNG3nucw9KiNPl9K+t3/AJZFr8q75bhlUwfNqzRuBHkzvOjeedirsVdirwX/AJyk
1akeg6QrbMZruZfkFjjP4vluMILx/wAieW5PMnm7S9GUEx3My/WCP2YE+OVvoRTT3yyRoIfasytH
aOsCDkkZESAClQPhFMxmT4LzKYPs/wDKu2+rflz5djpTlZRS9Kf3o9T/AI2zHlzZhlWRV2KuxV2K
qdzAlxbywSbxyoyOPZhQ4hXzlcQPBcSwSbPE7I491NDmwDjqeKvcdH03Sdf8paUNRtkuVW3RQWqG
DIvBuLKQwqV7HMORMZGm4CwrWnkTyjavzi02Mt/xaXmH3SM4wHJI9V4QnkcUcSBI0CIvRVAAH0DI
Ml2KuxV2KuxV2KuxV2KsX81tW+iXwiB+9j/TNP2ifWPc7fs8eg+9JM17nst8u6cba29eQUlnANPB
ew+nrm70WDgjZ5l02tzcUqHIJtma4TAJ0KTyIeqswP0HOZmKkQ9JA2AVgJBBHUb4AkvQlIKgjoRX
OnBeaIdirsVdir5R/wCchNaXUfzHuIEblHpkEVoCOnKhlf6Q0pU/LL8Y2Yln3/ONfkk21hdebLyO
kt5W207kOkKmssg/13AUf6p8cjkPRIe4ZUl8EMrIxVhRlJDA9QRmUwfcXlK1Np5U0W0I4m3sbaIr
vtwhVab79sxjzZprgV2KuxV2KuxV4X5602W08238Yjak8nrxUB+IS/ESP9kSMzISHDZaTE2o2Pkr
zVe0MOmzBW3DSgRCh71kK4Tkj3rwl7B5O0m90ny7a2F4VM8XMsENQA7s4Fdq/azFySs22xFBOsgl
2KuxV2KuxV2KuxV2KuxVifmj/jpD/jGv6zml7Q/vPg7nQf3fxS22i9W4ii/ndV+80zExx4pAd7lT
lUSWfAACg6Z0rzjsVYdr9sYNTkNPhl/eL9PX8a5otZj4ch893eaOfFjHlslU08MEZkmdY416sxoP
xzHhAyNAWXIlMRFk0GaafruiXKRQ2+oW00xUARpKhcmn8teWdKIEDd5yUgTsmWKHYq881rQfzVv7
24EOqw29k8jegschiKxknjUpHzrTrvmyxZdPEC42XS59PrJyNSAj8v0MPb/nHOe91BbvU7uH97L6
l40MkrO4LVc1dPtNkcuowm6Btt0+DVQoSlEj8e57Xp+n2enWFvYWUQhtLWNYYIl6KiDio39hmvdq
iMVeFaz/AM48yya5eXdgsD2c8zSwJNM4Khzy4lQlNj882GHNhAHEDbq9Tj1UpHgMRH7fuZFZ6B+c
NlEkNvqC+lHsgeSOSgHQfvFY0y6WXTS3IcOGn10RQl9t/e9J0pNRTTrddSdJL8IPrLxiiF+9Nh+r
NZk4eI8PJ3mISERx/V1RWQbHYq7FXkv53/mh5o8n3FhZaLbxxpdxNI+oTIZByDcfTQGiVAFTWvUZ
ZCIKCXkVp+cX5lX95wMi6rdzELDF9WUuPBUSAR16+ByrPoseQ2W/Dqp4xQfVulPdyaXZveRiG8eC
NrmFeiSFAXUbno22GqaSbRWKuxV2KuxV2KuxV2KuxV2KvKPMHn/zjBrFzbQx/VI4nZY4TEGYqpoG
JYNWvttmTHFGmoyKVx+YfOt7ceq9vLfO1KAW7dBtRfTVcx9RocWQ2di5ODWZMYobhn/kuw1GRHvd
Vs2tJkalvEx3IpuxXqPauYkNDDHKwbbsmtlONVTLMynFdiqS+adEv9VtYlsLpbS4iepkZA4KEEFf
vochLFCf1i2cMs4fSaYZdflXr103K41aOUjpyV6D5DoMvxmEPpjTXklOf1G1tr+T98s6PLqaIqkN
yiRi4oa7VIoffLTnHcw4H//Z</xmpGImg:image></rdf:li></rdf:Alt></xmp:Thumbnails></rdf:Description><rdf:Description
             rdf:about=""><xmpMM:RenditionClass>proof:pdf</xmpMM:RenditionClass><xmpMM:OriginalDocumentID>uuid:65E6390686CF11DBA6E2D887CEACB407</xmpMM:OriginalDocumentID><xmpMM:DocumentID>xmp.did:16EB161009206811822AE71BFECAA82A</xmpMM:DocumentID><xmpMM:InstanceID>xmp.iid:16EB161009206811822AE71BFECAA82A</xmpMM:InstanceID><xmpMM:DerivedFrom
               rdf:parseType="Resource"><stRef:instanceID>xmp.iid:15EB161009206811822AE71BFECAA82A</stRef:instanceID><stRef:documentID>xmp.did:15EB161009206811822AE71BFECAA82A</stRef:documentID><stRef:originalDocumentID>uuid:65E6390686CF11DBA6E2D887CEACB407</stRef:originalDocumentID><stRef:renditionClass>proof:pdf</stRef:renditionClass></xmpMM:DerivedFrom><xmpMM:History><rdf:Seq><rdf:li
                   rdf:parseType="Resource"><stEvt:action>saved</stEvt:action><stEvt:instanceID>xmp.iid:0280117407206811822AA1A1DC31C4F2</stEvt:instanceID><stEvt:when>2018-04-23T10:06:05+02:00</stEvt:when><stEvt:softwareAgent>Adobe Illustrator CS6 (Macintosh)</stEvt:softwareAgent><stEvt:changed>/</stEvt:changed></rdf:li><rdf:li
                   rdf:parseType="Resource"><stEvt:action>saved</stEvt:action><stEvt:instanceID>xmp.iid:16EB161009206811822AE71BFECAA82A</stEvt:instanceID><stEvt:when>2018-05-25T11:28:56+02:00</stEvt:when><stEvt:softwareAgent>Adobe Illustrator CS6 (Macintosh)</stEvt:softwareAgent><stEvt:changed>/</stEvt:changed></rdf:li></rdf:Seq></xmpMM:History></rdf:Description><rdf:Description
             rdf:about=""><illustrator:StartupProfile>Web</illustrator:StartupProfile></rdf:Description><rdf:Description
             rdf:about=""><xmpTPg:NPages>1</xmpTPg:NPages><xmpTPg:HasVisibleTransparency>True</xmpTPg:HasVisibleTransparency><xmpTPg:HasVisibleOverprint>False</xmpTPg:HasVisibleOverprint><xmpTPg:MaxPageSize
               rdf:parseType="Resource"><stDim:w>960.000000</stDim:w><stDim:h>560.000000</stDim:h><stDim:unit>Pixels</stDim:unit></xmpTPg:MaxPageSize><xmpTPg:PlateNames><rdf:Seq><rdf:li>Cyan</rdf:li><rdf:li>Magenta</rdf:li><rdf:li>Yellow</rdf:li><rdf:li>Black</rdf:li></rdf:Seq></xmpTPg:PlateNames><xmpTPg:SwatchGroups><rdf:Seq><rdf:li
                   rdf:parseType="Resource"><xmpG:groupName>Default Swatch Group</xmpG:groupName><xmpG:groupType>0</xmpG:groupType><xmpG:Colorants><rdf:Seq><rdf:li
                         rdf:parseType="Resource"><xmpG:swatchName>White</xmpG:swatchName><xmpG:mode>RGB</xmpG:mode><xmpG:type>PROCESS</xmpG:type><xmpG:red>255</xmpG:red><xmpG:green>255</xmpG:green><xmpG:blue>255</xmpG:blue></rdf:li><rdf:li
                         rdf:parseType="Resource"><xmpG:swatchName>Black</xmpG:swatchName><xmpG:mode>RGB</xmpG:mode><xmpG:type>PROCESS</xmpG:type><xmpG:red>0</xmpG:red><xmpG:green>0</xmpG:green><xmpG:blue>0</xmpG:blue></rdf:li><rdf:li
                         rdf:parseType="Resource"><xmpG:swatchName>RGB Red</xmpG:swatchName><xmpG:mode>RGB</xmpG:mode><xmpG:type>PROCESS</xmpG:type><xmpG:red>255</xmpG:red><xmpG:green>0</xmpG:green><xmpG:blue>0</xmpG:blue></rdf:li><rdf:li
                         rdf:parseType="Resource"><xmpG:swatchName>RGB Yellow</xmpG:swatchName><xmpG:mode>RGB</xmpG:mode><xmpG:type>PROCESS</xmpG:type><xmpG:red>255</xmpG:red><xmpG:green>255</xmpG:green><xmpG:blue>0</xmpG:blue></rdf:li><rdf:li
                         rdf:parseType="Resource"><xmpG:swatchName>RGB Green</xmpG:swatchName><xmpG:mode>RGB</xmpG:mode><xmpG:type>PROCESS</xmpG:type><xmpG:red>0</xmpG:red><xmpG:green>255</xmpG:green><xmpG:blue>0</xmpG:blue></rdf:li><rdf:li
                         rdf:parseType="Resource"><xmpG:swatchName>RGB Cyan</xmpG:swatchName><xmpG:mode>RGB</xmpG:mode><xmpG:type>PROCESS</xmpG:type><xmpG:red>0</xmpG:red><xmpG:green>255</xmpG:green><xmpG:blue>255</xmpG:blue></rdf:li><rdf:li
                         rdf:parseType="Resource"><xmpG:swatchName>RGB Blue</xmpG:swatchName><xmpG:mode>RGB</xmpG:mode><xmpG:type>PROCESS</xmpG:type><xmpG:red>0</xmpG:red><xmpG:green>0</xmpG:green><xmpG:blue>255</xmpG:blue></rdf:li><rdf:li
                         rdf:parseType="Resource"><xmpG:swatchName>RGB Magenta</xmpG:swatchName><xmpG:mode>RGB</xmpG:mode><xmpG:type>PROCESS</xmpG:type><xmpG:red>255</xmpG:red><xmpG:green>0</xmpG:green><xmpG:blue>255</xmpG:blue></rdf:li><rdf:li
                         rdf:parseType="Resource"><xmpG:swatchName>R=193 G=39 B=45</xmpG:swatchName><xmpG:mode>RGB</xmpG:mode><xmpG:type>PROCESS</xmpG:type><xmpG:red>193</xmpG:red><xmpG:green>39</xmpG:green><xmpG:blue>45</xmpG:blue></rdf:li><rdf:li
                         rdf:parseType="Resource"><xmpG:swatchName>R=237 G=28 B=36</xmpG:swatchName><xmpG:mode>RGB</xmpG:mode><xmpG:type>PROCESS</xmpG:type><xmpG:red>237</xmpG:red><xmpG:green>28</xmpG:green><xmpG:blue>36</xmpG:blue></rdf:li><rdf:li
                         rdf:parseType="Resource"><xmpG:swatchName>R=241 G=90 B=36</xmpG:swatchName><xmpG:mode>RGB</xmpG:mode><xmpG:type>PROCESS</xmpG:type><xmpG:red>241</xmpG:red><xmpG:green>90</xmpG:green><xmpG:blue>36</xmpG:blue></rdf:li><rdf:li
                         rdf:parseType="Resource"><xmpG:swatchName>R=247 G=147 B=30</xmpG:swatchName><xmpG:mode>RGB</xmpG:mode><xmpG:type>PROCESS</xmpG:type><xmpG:red>247</xmpG:red><xmpG:green>147</xmpG:green><xmpG:blue>30</xmpG:blue></rdf:li><rdf:li
                         rdf:parseType="Resource"><xmpG:swatchName>R=251 G=176 B=59</xmpG:swatchName><xmpG:mode>RGB</xmpG:mode><xmpG:type>PROCESS</xmpG:type><xmpG:red>251</xmpG:red><xmpG:green>176</xmpG:green><xmpG:blue>59</xmpG:blue></rdf:li><rdf:li
                         rdf:parseType="Resource"><xmpG:swatchName>R=252 G=238 B=33</xmpG:swatchName><xmpG:mode>RGB</xmpG:mode><xmpG:type>PROCESS</xmpG:type><xmpG:red>252</xmpG:red><xmpG:green>238</xmpG:green><xmpG:blue>33</xmpG:blue></rdf:li><rdf:li
                         rdf:parseType="Resource"><xmpG:swatchName>R=217 G=224 B=33</xmpG:swatchName><xmpG:mode>RGB</xmpG:mode><xmpG:type>PROCESS</xmpG:type><xmpG:red>217</xmpG:red><xmpG:green>224</xmpG:green><xmpG:blue>33</xmpG:blue></rdf:li><rdf:li
                         rdf:parseType="Resource"><xmpG:swatchName>R=140 G=198 B=63</xmpG:swatchName><xmpG:mode>RGB</xmpG:mode><xmpG:type>PROCESS</xmpG:type><xmpG:red>140</xmpG:red><xmpG:green>198</xmpG:green><xmpG:blue>63</xmpG:blue></rdf:li><rdf:li
                         rdf:parseType="Resource"><xmpG:swatchName>R=57 G=181 B=74</xmpG:swatchName><xmpG:mode>RGB</xmpG:mode><xmpG:type>PROCESS</xmpG:type><xmpG:red>57</xmpG:red><xmpG:green>181</xmpG:green><xmpG:blue>74</xmpG:blue></rdf:li><rdf:li
                         rdf:parseType="Resource"><xmpG:swatchName>R=0 G=146 B=69</xmpG:swatchName><xmpG:mode>RGB</xmpG:mode><xmpG:type>PROCESS</xmpG:type><xmpG:red>0</xmpG:red><xmpG:green>146</xmpG:green><xmpG:blue>69</xmpG:blue></rdf:li><rdf:li
                         rdf:parseType="Resource"><xmpG:swatchName>R=0 G=104 B=55</xmpG:swatchName><xmpG:mode>RGB</xmpG:mode><xmpG:type>PROCESS</xmpG:type><xmpG:red>0</xmpG:red><xmpG:green>104</xmpG:green><xmpG:blue>55</xmpG:blue></rdf:li><rdf:li
                         rdf:parseType="Resource"><xmpG:swatchName>R=34 G=181 B=115</xmpG:swatchName><xmpG:mode>RGB</xmpG:mode><xmpG:type>PROCESS</xmpG:type><xmpG:red>34</xmpG:red><xmpG:green>181</xmpG:green><xmpG:blue>115</xmpG:blue></rdf:li><rdf:li
                         rdf:parseType="Resource"><xmpG:swatchName>R=0 G=169 B=157</xmpG:swatchName><xmpG:mode>RGB</xmpG:mode><xmpG:type>PROCESS</xmpG:type><xmpG:red>0</xmpG:red><xmpG:green>169</xmpG:green><xmpG:blue>157</xmpG:blue></rdf:li><rdf:li
                         rdf:parseType="Resource"><xmpG:swatchName>R=41 G=171 B=226</xmpG:swatchName><xmpG:mode>RGB</xmpG:mode><xmpG:type>PROCESS</xmpG:type><xmpG:red>41</xmpG:red><xmpG:green>171</xmpG:green><xmpG:blue>226</xmpG:blue></rdf:li><rdf:li
                         rdf:parseType="Resource"><xmpG:swatchName>R=0 G=113 B=188</xmpG:swatchName><xmpG:mode>RGB</xmpG:mode><xmpG:type>PROCESS</xmpG:type><xmpG:red>0</xmpG:red><xmpG:green>113</xmpG:green><xmpG:blue>188</xmpG:blue></rdf:li><rdf:li
                         rdf:parseType="Resource"><xmpG:swatchName>R=46 G=49 B=146</xmpG:swatchName><xmpG:mode>RGB</xmpG:mode><xmpG:type>PROCESS</xmpG:type><xmpG:red>46</xmpG:red><xmpG:green>49</xmpG:green><xmpG:blue>146</xmpG:blue></rdf:li><rdf:li
                         rdf:parseType="Resource"><xmpG:swatchName>R=27 G=20 B=100</xmpG:swatchName><xmpG:mode>RGB</xmpG:mode><xmpG:type>PROCESS</xmpG:type><xmpG:red>27</xmpG:red><xmpG:green>20</xmpG:green><xmpG:blue>100</xmpG:blue></rdf:li><rdf:li
                         rdf:parseType="Resource"><xmpG:swatchName>R=102 G=45 B=145</xmpG:swatchName><xmpG:mode>RGB</xmpG:mode><xmpG:type>PROCESS</xmpG:type><xmpG:red>102</xmpG:red><xmpG:green>45</xmpG:green><xmpG:blue>145</xmpG:blue></rdf:li><rdf:li
                         rdf:parseType="Resource"><xmpG:swatchName>R=147 G=39 B=143</xmpG:swatchName><xmpG:mode>RGB</xmpG:mode><xmpG:type>PROCESS</xmpG:type><xmpG:red>147</xmpG:red><xmpG:green>39</xmpG:green><xmpG:blue>143</xmpG:blue></rdf:li><rdf:li
                         rdf:parseType="Resource"><xmpG:swatchName>R=158 G=0 B=93</xmpG:swatchName><xmpG:mode>RGB</xmpG:mode><xmpG:type>PROCESS</xmpG:type><xmpG:red>158</xmpG:red><xmpG:green>0</xmpG:green><xmpG:blue>93</xmpG:blue></rdf:li><rdf:li
                         rdf:parseType="Resource"><xmpG:swatchName>R=212 G=20 B=90</xmpG:swatchName><xmpG:mode>RGB</xmpG:mode><xmpG:type>PROCESS</xmpG:type><xmpG:red>212</xmpG:red><xmpG:green>20</xmpG:green><xmpG:blue>90</xmpG:blue></rdf:li><rdf:li
                         rdf:parseType="Resource"><xmpG:swatchName>R=237 G=30 B=121</xmpG:swatchName><xmpG:mode>RGB</xmpG:mode><xmpG:type>PROCESS</xmpG:type><xmpG:red>237</xmpG:red><xmpG:green>30</xmpG:green><xmpG:blue>121</xmpG:blue></rdf:li><rdf:li
                         rdf:parseType="Resource"><xmpG:swatchName>R=199 G=178 B=153</xmpG:swatchName><xmpG:mode>RGB</xmpG:mode><xmpG:type>PROCESS</xmpG:type><xmpG:red>199</xmpG:red><xmpG:green>178</xmpG:green><xmpG:blue>153</xmpG:blue></rdf:li><rdf:li
                         rdf:parseType="Resource"><xmpG:swatchName>R=153 G=134 B=117</xmpG:swatchName><xmpG:mode>RGB</xmpG:mode><xmpG:type>PROCESS</xmpG:type><xmpG:red>153</xmpG:red><xmpG:green>134</xmpG:green><xmpG:blue>117</xmpG:blue></rdf:li><rdf:li
                         rdf:parseType="Resource"><xmpG:swatchName>R=115 G=99 B=87</xmpG:swatchName><xmpG:mode>RGB</xmpG:mode><xmpG:type>PROCESS</xmpG:type><xmpG:red>115</xmpG:red><xmpG:green>99</xmpG:green><xmpG:blue>87</xmpG:blue></rdf:li><rdf:li
                         rdf:parseType="Resource"><xmpG:swatchName>R=83 G=71 B=65</xmpG:swatchName><xmpG:mode>RGB</xmpG:mode><xmpG:type>PROCESS</xmpG:type><xmpG:red>83</xmpG:red><xmpG:green>71</xmpG:green><xmpG:blue>65</xmpG:blue></rdf:li><rdf:li
                         rdf:parseType="Resource"><xmpG:swatchName>R=198 G=156 B=109</xmpG:swatchName><xmpG:mode>RGB</xmpG:mode><xmpG:type>PROCESS</xmpG:type><xmpG:red>198</xmpG:red><xmpG:green>156</xmpG:green><xmpG:blue>109</xmpG:blue></rdf:li><rdf:li
                         rdf:parseType="Resource"><xmpG:swatchName>R=166 G=124 B=82</xmpG:swatchName><xmpG:mode>RGB</xmpG:mode><xmpG:type>PROCESS</xmpG:type><xmpG:red>166</xmpG:red><xmpG:green>124</xmpG:green><xmpG:blue>82</xmpG:blue></rdf:li><rdf:li
                         rdf:parseType="Resource"><xmpG:swatchName>R=140 G=98 B=57</xmpG:swatchName><xmpG:mode>RGB</xmpG:mode><xmpG:type>PROCESS</xmpG:type><xmpG:red>140</xmpG:red><xmpG:green>98</xmpG:green><xmpG:blue>57</xmpG:blue></rdf:li><rdf:li
                         rdf:parseType="Resource"><xmpG:swatchName>R=117 G=76 B=36</xmpG:swatchName><xmpG:mode>RGB</xmpG:mode><xmpG:type>PROCESS</xmpG:type><xmpG:red>117</xmpG:red><xmpG:green>76</xmpG:green><xmpG:blue>36</xmpG:blue></rdf:li><rdf:li
                         rdf:parseType="Resource"><xmpG:swatchName>R=96 G=56 B=19</xmpG:swatchName><xmpG:mode>RGB</xmpG:mode><xmpG:type>PROCESS</xmpG:type><xmpG:red>96</xmpG:red><xmpG:green>56</xmpG:green><xmpG:blue>19</xmpG:blue></rdf:li><rdf:li
                         rdf:parseType="Resource"><xmpG:swatchName>R=66 G=33 B=11</xmpG:swatchName><xmpG:mode>RGB</xmpG:mode><xmpG:type>PROCESS</xmpG:type><xmpG:red>66</xmpG:red><xmpG:green>33</xmpG:green><xmpG:blue>11</xmpG:blue></rdf:li></rdf:Seq></xmpG:Colorants></rdf:li><rdf:li
                   rdf:parseType="Resource"><xmpG:groupName>one-neo-01</xmpG:groupName><xmpG:groupType>1</xmpG:groupType><xmpG:Colorants><rdf:Seq><rdf:li
                         rdf:parseType="Resource"><xmpG:swatchName>texte 1</xmpG:swatchName><xmpG:mode>RGB</xmpG:mode><xmpG:type>PROCESS</xmpG:type><xmpG:red>65</xmpG:red><xmpG:green>67</xmpG:green><xmpG:blue>85</xmpG:blue></rdf:li><rdf:li
                         rdf:parseType="Resource"><xmpG:swatchName>texte 2</xmpG:swatchName><xmpG:mode>RGB</xmpG:mode><xmpG:type>PROCESS</xmpG:type><xmpG:red>133</xmpG:red><xmpG:green>143</xmpG:green><xmpG:blue>169</xmpG:blue></rdf:li><rdf:li
                         rdf:parseType="Resource"><xmpG:swatchName>texte 3</xmpG:swatchName><xmpG:mode>RGB</xmpG:mode><xmpG:type>PROCESS</xmpG:type><xmpG:red>220</xmpG:red><xmpG:green>221</xmpG:green><xmpG:blue>224</xmpG:blue></rdf:li><rdf:li
                         rdf:parseType="Resource"><xmpG:swatchName>fond</xmpG:swatchName><xmpG:mode>RGB</xmpG:mode><xmpG:type>PROCESS</xmpG:type><xmpG:red>248</xmpG:red><xmpG:green>248</xmpG:green><xmpG:blue>250</xmpG:blue></rdf:li><rdf:li
                         rdf:parseType="Resource"><xmpG:swatchName>R=255 G=163 B=72</xmpG:swatchName><xmpG:mode>RGB</xmpG:mode><xmpG:type>PROCESS</xmpG:type><xmpG:red>255</xmpG:red><xmpG:green>163</xmpG:green><xmpG:blue>72</xmpG:blue></rdf:li><rdf:li
                         rdf:parseType="Resource"><xmpG:swatchName>R=42 G=156 B=200</xmpG:swatchName><xmpG:mode>RGB</xmpG:mode><xmpG:type>PROCESS</xmpG:type><xmpG:red>42</xmpG:red><xmpG:green>156</xmpG:green><xmpG:blue>200</xmpG:blue></rdf:li><rdf:li
                         rdf:parseType="Resource"><xmpG:swatchName>R=252 G=193 B=139</xmpG:swatchName><xmpG:mode>RGB</xmpG:mode><xmpG:type>PROCESS</xmpG:type><xmpG:red>252</xmpG:red><xmpG:green>193</xmpG:green><xmpG:blue>139</xmpG:blue></rdf:li></rdf:Seq></xmpG:Colorants></rdf:li></rdf:Seq></xmpTPg:SwatchGroups></rdf:Description><rdf:Description
             rdf:about=""><pdf:Producer>Adobe PDF library 10.01</pdf:Producer></rdf:Description><cc:Work
             rdf:about=""><dc:format>image/svg+xml</dc:format><dc:type
               rdf:resource="http://purl.org/dc/dcmitype/StillImage" /><dc:title></dc:title></cc:Work></rdf:RDF></metadata></x:xmpmeta><?xpacket end="w"?></metadata><g
     id="g4778"
     transform="translate(-304.32721,-133.94083)"><g
       id="g40"><path
         id="path4"
         d="m 539.812,308 1.562,26.5 7.423,-0.258 c -0.293,-8.767 0.021,-17.53 -0.923,-26.242 z"
         style="fill:#2a9cc8"
         inkscape:connector-curvature="0" /><path
         id="path6"
         d="m 563,307.5 -15.625,0.625 c 0.232,9.82 0.878,18.475 1.125,25.875 l 14.625,-1 z"
         style="fill:#ffa348"
         inkscape:connector-curvature="0" /><path
         id="path8"
         d="m 561.379,299.129 c -3.004,2.871 -7.753,4.527 -11.129,5.371 -3.5,0.875 -7.927,2.282 -10.25,3.25 -0.75,0.312 1.788,2.295 2.688,2.125 6.577,-1.249 19.464,-0.248 20.191,-10.125 0.055,-0.744 -0.957,-1.14 -1.5,-0.621 z"
         style="fill:#2a9cc8"
         inkscape:connector-curvature="0" /><g
         id="g38"><g
           id="g12"
           style="opacity:0.7"><path
             id="path10"
             d="m 549.25,311.625 c 4.167,-0.057 8.427,-0.287 12.508,-1.143 0.631,-0.133 0.363,-1.097 -0.266,-0.965 -3.979,0.835 -8.175,1.052 -12.242,1.107 -0.645,0.01 -0.646,1.01 0,1.001 z"
             style="fill:#2a9cc8"
             inkscape:connector-curvature="0" /></g><g
           id="g16"
           style="opacity:0.7"><path
             id="path14"
             d="m 549.25,314.625 c 4.167,-0.057 8.427,-0.287 12.508,-1.143 0.631,-0.133 0.363,-1.097 -0.266,-0.965 -3.979,0.835 -8.175,1.052 -12.242,1.107 -0.645,0.01 -0.646,1.01 0,1.001 z"
             style="fill:#2a9cc8"
             inkscape:connector-curvature="0" /></g><g
           id="g20"
           style="opacity:0.7"><path
             id="path18"
             d="m 549.25,317.625 c 4.167,-0.057 8.427,-0.287 12.508,-1.143 0.631,-0.133 0.363,-1.097 -0.266,-0.965 -3.979,0.835 -8.175,1.052 -12.242,1.107 -0.645,0.01 -0.646,1.01 0,1.001 z"
             style="fill:#2a9cc8"
             inkscape:connector-curvature="0" /></g><g
           id="g24"
           style="opacity:0.7"><path
             id="path22"
             d="m 549.25,320.625 c 4.167,-0.057 8.427,-0.287 12.508,-1.143 0.631,-0.133 0.363,-1.097 -0.266,-0.965 -3.979,0.835 -8.175,1.052 -12.242,1.107 -0.645,0.01 -0.646,1.01 0,1.001 z"
             style="fill:#2a9cc8"
             inkscape:connector-curvature="0" /></g><g
           id="g28"
           style="opacity:0.7"><path
             id="path26"
             d="m 549.438,323.625 c 4.104,-0.057 8.301,-0.3 12.32,-1.143 0.631,-0.133 0.363,-1.097 -0.266,-0.965 -3.918,0.821 -8.05,1.052 -12.055,1.107 -0.644,0.01 -0.645,1.01 10e-4,1.001 z"
             style="fill:#2a9cc8"
             inkscape:connector-curvature="0" /></g><g
           id="g32"
           style="opacity:0.6"><path
             id="path30"
             d="m 549.75,326.562 c 4.013,-0.022 8.072,-0.279 12.008,-1.08 0.632,-0.129 0.363,-1.093 -0.266,-0.965 -3.843,0.783 -7.822,1.022 -11.742,1.045 -0.645,0.004 -0.645,1.004 0,1 z"
             style="fill:#2a9cc8"
             inkscape:connector-curvature="0" /></g><g
           id="g36"
           style="opacity:0.4"><path
             id="path34"
             d="m 550,329.625 c 3.914,-0.05 7.927,-0.34 11.758,-1.143 0.631,-0.133 0.363,-1.097 -0.266,-0.965 -3.73,0.782 -7.677,1.059 -11.492,1.107 -0.645,0.009 -0.646,1.009 0,1.001 z"
             style="fill:#2a9cc8"
             inkscape:connector-curvature="0" /></g></g></g><g
       id="g72"><path
         id="path42"
         d="m 402.5,173 8,26 26.5,-11 c 0,0 -4.167,-5.833 -5.5,-10 -1.333,-4.167 -2.5,-12 -2.5,-12 z"
         style="fill:#2a9cc8"
         inkscape:connector-curvature="0" /><path
         id="path44"
         d="m 491.565,146.916 c -5.565,-0.415 -9.58,4.538 -9.58,4.538 0,0 -4.319,-6.453 -11.193,-4.579 -7.13,1.943 -7.283,8.162 -5.792,14.292 1.5,6.167 15.948,16.048 15.948,16.048 0,0 9.385,-6.214 13.885,-11.714 2.518,-3.077 5.334,-7.833 4.257,-12.673 -0.55,-2.47 -3.945,-5.645 -7.525,-5.912 z"
         style="fill:#ffa348"
         inkscape:connector-curvature="0" /><polygon
         id="polygon46"
         points="551.5,182.5 582.5,181.5 578.5,153 552.5,152.5 "
         style="fill:#dcdde0" /><polygon
         id="polygon48"
         points="574.333,173.167 590.833,173 588,162 572,162 "
         style="fill:#ffa348" /><polygon
         id="polygon50"
         points="524.333,151.167 540.833,151 538,140 522,140 "
         style="fill:#2a9cc8" /><polygon
         id="polygon52"
         points="474.708,256.566 489,252.5 485.638,242.709 471.5,246.5 "
         style="fill:#2a9cc8" /><path
         id="path54"
         d="m 536.834,174.667 -30.667,1 c 0,0 1.354,9.523 1.167,15.333 -0.187,5.81 -1.834,16.5 -1.834,16.5 l 33.334,-1.667 c 0,0 -1.501,-5.833 -1.834,-13 -0.333,-7.167 -0.166,-18.166 -0.166,-18.166 z"
         style="fill:#dcdde0"
         inkscape:connector-curvature="0" /><path
         id="path56"
         d="M 453.112,226.108 455.667,199.834 483,196.5 c 0,0 0.332,11.679 0,16.334 -1,14 -2.5,19.166 -2.5,19.166 l -28,3 z"
         style="fill:#fcc18b"
         inkscape:connector-curvature="0" /><polygon
         id="polygon58"
         points="337.5,210 366.667,208.167 364.667,179.167 336,180 "
         style="fill:#2a9cc8" /><path
         id="path60"
         d="M 375.167,192.167 348,194.5 l 3.5,27 30.5,-5.5 c 0,0 -4.333,-8 -5,-12 -0.667,-4 -1.833,-11.833 -1.833,-11.833 z"
         style="fill:#ffa348"
         inkscape:connector-curvature="0" /><path
         id="path62"
         d="m 352.5,140.333 c -1.602,1.311 -1.333,18.667 0.167,19.5 C 354.942,161.097 370,160 370,160 c 0,0 -0.301,3.599 1.833,4.667 2.667,1.333 10.333,-6.5 10.333,-6.5 0,0 8,-8 8,-9.167 0,-1.167 -8.166,-8.167 -8.166,-8.167 0,0 -7.991,-7.636 -10.667,-6.833 -3.333,1 -2.333,5.333 -2.333,5.333 0,0 -14.667,-0.5 -16.5,1 z"
         style="fill:#fcc18b"
         inkscape:connector-curvature="0" /><g
         id="g68"><path
           id="path64"
           d="m 499.584,223.833 0.166,10.917 1.75,10.083 17.5,1.083 c 0,0 13.667,-0.833 13.917,-0.75 0.25,0.083 7.75,-0.167 7.75,-0.167 l -4.75,-12 -2,-9 -16.917,0.334 z"
           style="fill:#ffffff"
           inkscape:connector-curvature="0" /><path
           id="path66"
           d="m 541.164,244.298 c -2.254,-4.368 -3.285,-6.982 -4.348,-11.008 -0.137,-0.52 -0.301,-1.057 -0.479,-1.641 -0.582,-1.905 -1.307,-4.274 -1.727,-8.164 l -0.075,-0.273 c -1.353,0.131 -13.18,0.684 -17.361,0.623 -4.481,-0.063 -11.146,-0.416 -15.129,-0.625 -1.215,-0.064 -2.201,-0.116 -2.835,-0.145 L 499,224 c 0,4 0.168,8.897 0.335,10.957 0.368,4.565 1.053,7.493 1.505,9.597 l 0.171,0.798 0.107,-0.016 -0.046,0.238 c 2.63,0.509 16.217,0.926 19.928,0.926 3.514,0 15.099,-0.575 20.531,-1.188 0,0 -0.357,-1.015 -0.367,-1.014 z m -39.297,0.387 -0.05,-0.216 c -0.447,-2.078 -1.123,-5.092 -1.486,-9.591 -0.163,-2.023 -0.328,-6.794 -0.331,-10.774 0.556,0.028 1.221,0.063 1.992,0.104 3.989,0.21 10.667,0.563 15.168,0.627 0.225,0.003 0.469,0.005 0.732,0.005 4.173,0 12.799,-0.384 15.807,-0.567 0.438,3.574 1.122,5.84 1.682,7.669 0.174,0.571 0.335,1.097 0.469,1.604 1.055,3.998 2.084,6.634 4.25,10.866 -5.71,0.567 -15.828,1.089 -19.1,1.089 -3.353,-0.001 -15.532,-0.368 -19.133,-0.816 z"
           style="fill:#858fa9"
           inkscape:connector-curvature="0" /></g><path
         id="path70"
         d="m 519.5,272.75 4.25,-17.5 9.5,13.75 c 0,0 13,-1.75 13.25,-1 0.25,0.75 -6.25,11 -6.25,11 l 4.75,11.25 -14.5,-1.5 -14.25,9.5 1.75,-13.75 -11,-8.25 z"
         style="fill:#dcdde0"
         inkscape:connector-curvature="0" /></g><g
       id="g120"><polygon
         id="polygon74"
         points="465,419 473.333,417.333 472.333,428.333 465,430 "
         style="fill:#fcc18b" /><polygon
         id="polygon76"
         points="532.667,366 544.167,363.333 544.334,369.833 534,372 "
         style="fill:#fcc18b" /><path
         id="path78"
         d="m 534.04,364.935 c -1.027,-0.057 -5.936,1.848 -7.371,2.226 -3.836,1.011 -7.625,2.191 -11.364,3.513 -3.227,1.14 -6.294,2.613 -9.581,3.586 -2.508,0.741 -5.528,2.185 -8.169,1.651 -2.451,-0.494 -1.41,-6.729 -1.456,-8.46 -0.079,-2.999 -0.38,-6.112 -1.242,-8.99 -0.828,-2.764 -2.148,-5.31 -3.434,-7.877 -0.813,-1.628 -1.766,-2.607 -3.519,-3.144 -6.091,-1.864 -13.011,-2.043 -19.322,-2.215 -3.415,-0.092 -6.833,0.012 -10.246,-0.156 -2.244,-0.11 -3.667,0.03 -5.242,1.775 -0.317,0.353 -0.096,0.81 0.234,0.949 0.84,2.949 0.245,6.477 0.433,9.507 0.229,3.688 0.642,7.307 1.063,10.977 0.838,7.306 1.833,14.626 2.974,21.891 0.945,6.018 2.489,11.915 3.669,17.886 0.809,4.091 1.588,8.172 2.56,12.227 0.233,0.974 0.669,1.502 1.676,1.637 2.306,0.307 5.269,-0.833 7.536,-1.21 2.94,-0.49 5.857,-1.112 8.763,-1.761 1.508,-0.336 4.771,-0.787 5.618,-2.324 0.277,-0.505 0.056,-1.259 -0.029,-1.784 -0.199,-1.235 -0.228,-2.507 -0.431,-3.734 -0.56,-3.367 -1.109,-6.731 -1.584,-10.112 -0.52,-3.696 -1.023,-7.358 -1.747,-11.023 -0.601,-3.043 -1.227,-6.09 -1.508,-9.176 0.902,2.429 1.683,4.896 2.689,7.271 1.146,2.704 2.561,5.385 3.997,7.944 1.31,2.332 2.695,3.73 5.296,4.511 5.523,1.656 11.49,-1.057 16.801,-2.316 3.157,-0.748 6.344,-1.314 9.484,-2.145 3.242,-0.856 6.413,-1.973 9.68,-2.723 1.929,-0.442 3.107,-1.505 3.554,-3.44 0.745,-3.231 0.904,-6.7 1.17,-9.993 0.289,-3.592 0.496,-7.173 0.718,-10.771 0.102,-1.659 0.584,-4.073 -1.67,-4.197 z"
         style="fill:#858fa9"
         inkscape:connector-curvature="0" /><path
         id="path80"
         d="m 481.548,282.258 c -1.761,-2.673 -6.894,-5.237 -10.048,-5.498 -2.689,-0.223 -6.308,-0.388 -8.441,1.679 -0.069,-0.018 -0.145,-0.009 -0.216,0.041 -1.321,0.939 -2.313,2.257 -3.425,3.421 -2.322,2.431 -5.183,1.392 -8.167,1.437 -0.27,0.004 -0.593,0.196 -0.639,0.486 -0.687,4.357 -0.044,8.88 1.106,13.114 1.277,4.698 3.677,8.562 6.522,12.467 2.343,3.216 7.17,3.451 10.759,4.043 3.55,0.586 7.702,-2.768 9.714,-5.405 2.968,-3.891 4.193,-9.229 4.808,-13.994 0.494,-3.82 0.199,-8.496 -1.973,-11.791 z"
         style="fill:#fcc18b"
         inkscape:connector-curvature="0" /><path
         id="path82"
         d="m 560,333.334 c -0.3,-1.366 -4.409,-0.849 -6.416,-0.583 -2.093,0.277 -5.17,0.484 -7.084,-0.75 -2.235,-1.441 2.046,-4.806 2.667,-5.5 1.417,-1.584 -0.989,-1.435 -2.647,-1.141 -2.868,0.509 -5.372,2.317 -8.212,3.02 -0.1,0.024 -0.143,0.104 -0.16,0.188 -0.062,0.058 -0.077,0.124 -0.05,0.197 -0.17,-0.106 -0.396,-0.125 -0.536,0.046 -1.381,1.688 -2.073,5.657 -1.704,7.796 0.579,3.358 4.043,2.91 6.785,3.533 3.942,0.896 7.972,-0.597 11.774,-1.807 3.667,-1.167 4.083,-2.333 4.833,-3.5 0.548,-0.853 0.941,-0.626 0.75,-1.499 z"
         style="fill:#fcc18b"
         inkscape:connector-curvature="0" /><path
         id="path84"
         d="m 429.397,184.181 c -0.931,-0.442 -1.983,-0.256 -2.786,0.314 -0.428,0.304 -0.421,0.837 -0.329,1.368 -1.14,-1.024 -2.612,-1.873 -4.106,-1.081 -1.311,0.695 -1.289,1.638 -0.942,2.673 -0.886,-0.745 -1.961,-1.373 -2.973,-1.291 -1.071,0.087 -2.602,0.787 -2.521,2.123 0.109,1.824 0.977,3.201 2.149,4.55 1.211,1.394 1.937,2.4 2.043,4.341 0.087,1.589 -0.17,3.077 0.134,4.657 0.024,0.125 0.101,0.19 0.191,0.215 0.156,0.489 0.404,0.887 0.801,1.256 0.097,0.09 0.245,0.125 0.394,0.116 2.576,1.492 6.205,1.021 8.738,-0.462 1.082,-0.634 1.254,-2.124 1.488,-3.232 0.467,-2.21 0.98,-4.376 1.239,-6.631 0.372,-3.247 -0.275,-7.376 -3.52,-8.916 z"
         style="fill:#fcc18b"
         inkscape:connector-curvature="0" /><path
         id="path86"
         d="m 539.121,328.329 c -0.071,-0.347 -0.471,-0.535 -0.792,-0.45 -6.94,1.83 -14.096,2.815 -20.986,4.788 -2.494,0.715 -4.982,1.552 -7.611,1.396 -3.74,-0.222 -5.976,-3.488 -7.708,-6.389 -1.389,-2.325 -2.676,-4.67 -4.515,-6.681 -2.155,-2.358 -5.145,-4.048 -7.941,-5.502 -6.104,-3.174 -12.126,-4.999 -18.877,-6.197 -3.485,-0.618 -5.899,-1.935 -8.283,-4.565 -2.407,-2.654 -4.073,-5.944 -5.55,-9.178 -3.054,-6.685 -5.569,-13.6 -7.645,-20.643 -2.761,-9.366 -5.458,-18.671 -7.789,-28.158 -1.692,-6.889 -3.36,-13.789 -4.798,-20.737 -0.668,-3.228 -1.149,-6.488 -1.767,-9.726 -0.514,-2.698 -0.855,-5.487 -1.535,-8.145 -0.525,-2.052 -0.607,-4.143 -1.324,-6.131 0,-0.004 10e-4,-0.007 10e-4,-0.011 0,0 0,-0.556 0,-0.667 0,-0.362 -0.303,-0.71 -0.679,-0.691 -1.721,0.087 -3.327,0.498 -5,0.885 -1.786,0.413 -3.843,-0.134 -5.657,-0.175 -0.324,-0.007 -0.686,0.302 -0.646,0.648 1.372,12.067 4.244,24.087 7.313,35.815 2.23,8.522 4.118,17.023 6.757,25.44 2.777,8.86 5.058,17.654 6.835,26.779 1.736,8.908 3.03,17.889 4.367,26.863 1.16,7.789 1.798,15.627 2.787,23.435 0.353,2.782 0.67,5.584 1.177,8.343 0.311,1.69 2.663,1.581 4.023,1.732 6.248,0.694 12.695,0.731 18.974,0.992 6.896,0.287 13.849,0.534 20.75,0.576 0.372,0.002 0.614,-0.295 0.643,-0.643 0.183,-2.25 -0.449,-4.482 -0.828,-6.684 -0.486,-2.829 -0.301,-5.878 -0.22,-8.808 3.054,4.199 5.959,8.678 11.383,9.619 4.837,0.841 9.671,0.188 14.44,-0.715 7.364,-1.394 14.675,-3.339 22.085,-4.462 0.272,-0.042 0.476,-0.358 0.47,-0.617 -0.091,-3.843 -1.084,-7.589 -1.854,-11.336 z"
         style="fill:#dcdde0"
         inkscape:connector-curvature="0" /><path
         id="path88"
         d="m 499.842,278.169 c -3.121,-2.958 -7.586,-3.487 -11.653,-2.866 -0.498,-2.624 -3.221,-4.88 -5.491,-5.925 -3.726,-1.714 -8.609,-2.236 -12.666,-1.509 -3.505,0.627 -6.081,2.384 -8.658,4.716 -0.406,0.367 -1.936,1.604 -3.118,3.263 -0.631,0.778 0.15,1.091 0.416,1.303 4.173,3.033 8.284,6.292 12.591,9.098 1.666,1.086 3.065,2.458 4.836,3.397 1.32,0.7 -0.774,5.033 -1.133,6.297 -2.351,8.286 -4.022,16.831 -5.172,25.364 -0.052,0.388 0.086,0.794 0.511,0.9 4.88,1.224 9.96,2.581 14.625,4.479 2.298,0.935 4.792,1.301 7.081,2.229 1.887,0.765 3.908,1.677 5.988,1.475 0.413,-0.04 0.693,-0.3 0.723,-0.723 0.476,-6.984 1.6,-13.848 2.972,-20.706 1.184,-5.918 2.495,-11.727 2.544,-17.788 0.037,-4.674 -0.881,-9.671 -4.396,-13.004 z"
         style="fill:#ffa348"
         inkscape:connector-curvature="0" /><path
         id="path90"
         d="m 466.5,426.25 c -1.25,-0.312 -0.812,-1.188 -3,-1.125 -1.437,0.041 -5.818,0.859 -6.938,1.312 -1.82,0.736 -3.25,2 -3.25,3.938 0,4.879 7.05,3.911 9.697,3.787 4.194,-0.195 11.084,0.06 10.387,-5.996 -0.303,-2.635 -3.771,-1.291 -6.896,-1.916 z"
         style="fill:#414355"
         inkscape:connector-curvature="0" /><path
         id="path92"
         d="m 547.5,372 c -0.169,-2.332 -0.005,-4.823 -0.375,-7.125 -0.548,-3.403 -4.886,-2.354 -6.974,-0.878 -0.583,0.423 -0.489,0.708 -0.297,1.09 1.184,3.412 -0.615,4.842 -0.809,6.97 -0.198,2.189 0.329,5.068 1.329,6.818 1.638,2.865 4.875,2.25 6.125,0.5 1.164,-1.629 1.134,-5.523 1.001,-7.375 z"
         style="fill:#414355"
         inkscape:connector-curvature="0" /><ellipse
         id="ellipse94"
         ry="1.875"
         rx="1.75"
         cy="286.125"
         cx="462.125"
         style="fill:#414355" /><path
         id="path96"
         d="m 429.701,183.767 c -0.812,-0.368 -2.715,-0.8 -3.24,0.333 -0.247,0.533 -0.302,1.021 -0.252,1.49 -0.855,-0.876 -1.948,-1.463 -3.19,-1.425 -2.245,0.069 -2.248,1.755 -1.805,3.409 -1.506,-1.569 -3.621,-2.965 -4.891,-1.434 -3.083,3.715 3.366,7.928 3.466,11.61 0.007,0.272 0.415,0.272 0.422,0 0.063,-2.547 -1.706,-4.312 -2.992,-6.342 -1.085,-1.712 -1.15,-5.586 1.769,-4.225 1.297,0.605 2.456,1.794 3.145,3.033 0.274,0.493 0.946,0.06 0.736,-0.431 -0.292,-0.681 -0.604,-1.354 -0.891,-2.037 -0.726,-1.726 1.346,-3.298 2.892,-2.431 1.374,0.771 2.302,2.521 2.577,4.017 0.074,0.404 0.666,0.226 0.607,-0.167 -0.045,-0.303 -0.127,-0.585 -0.221,-0.861 -0.013,-0.04 -0.027,-0.079 -0.041,-0.118 -0.036,-0.099 -0.07,-0.2 -0.11,-0.297 -0.051,-0.129 -0.108,-0.258 -0.167,-0.385 -0.099,-0.219 -0.203,-0.438 -0.309,-0.662 -0.691,-1.465 -0.09,-3.122 1.731,-2.708 1.079,0.246 1.798,0.897 2.368,1.805 1.441,2.296 0.808,5.503 0.917,8.061 0.015,0.359 0.533,0.356 0.555,0 0.203,-3.373 0.603,-8.568 -3.076,-10.235 z"
         style="fill:#414355"
         inkscape:connector-curvature="0" /><path
         id="path98"
         d="m 559.628,332.503 c -2.672,-0.754 -6.087,-0.085 -8.844,-0.071 -1.295,0.006 -5.37,0.176 -4.03,-2.554 0.656,-1.337 2.169,-2.108 2.888,-3.461 0.101,-0.189 -0.162,-0.337 -0.283,-0.166 -1.252,1.769 -4.069,2.81 -3.817,5.341 0.168,1.679 2.603,1.752 3.807,1.761 2.799,0.02 5.61,-0.414 8.402,-0.567 1.083,-0.059 2.896,0.774 1.394,1.671 -0.035,0.021 -0.075,0.032 -0.111,0.053 -0.067,-0.013 -0.133,0.017 -0.169,0.079 -0.513,0.26 -1.065,0.452 -1.601,0.654 -1.808,0.683 -3.933,0.748 -5.828,1.021 -0.275,0.04 -0.209,0.499 0.065,0.483 2.37,-0.139 4.907,-0.478 7.111,-1.47 -1.429,3.061 -7.218,3.239 -9.846,4.142 -0.316,0.109 -0.189,0.561 0.137,0.498 2.684,-0.517 9.467,-1.258 10.193,-4.872 0.238,-0.121 0.477,-0.242 0.705,-0.381 0.933,-0.568 1.056,-1.814 -0.173,-2.161 z"
         style="fill:#414355"
         inkscape:connector-curvature="0" /><g
         id="g118"><path
           id="path100"
           d="m 484.062,279.302 c 0.3,1.471 -0.399,2.85 -0.789,4.211 -0.409,1.431 -0.771,2.874 -1.104,4.324 -0.637,2.778 -1.017,5.608 -1.401,8.43 -0.839,6.158 -1.57,12.309 -2.789,18.408 -0.071,0.353 0.458,0.505 0.542,0.15 1.45,-6.068 2.025,-12.305 2.818,-18.481 0.438,-3.41 1.027,-6.765 1.807,-10.112 0.509,-2.19 1.822,-4.78 1.293,-7.033 -0.058,-0.247 -0.427,-0.142 -0.377,0.103 z"
           style="fill:#dcdde0"
           inkscape:connector-curvature="0" /><path
           id="path102"
           d="m 486.248,280.069 c 0.668,3.307 -0.738,7.191 -1.231,10.483 -0.469,3.136 -0.83,6.286 -1.228,9.431 -0.82,6.481 -1.861,12.979 -2.074,19.517 -0.012,0.373 0.534,0.358 0.57,0 0.68,-6.837 1.455,-13.647 2.355,-20.459 0.485,-3.674 0.979,-7.342 1.557,-11.003 0.41,-2.597 1.315,-5.508 0.555,-8.107 -0.095,-0.327 -0.57,-0.19 -0.504,0.138 z"
           style="fill:#dcdde0"
           inkscape:connector-curvature="0" /><path
           id="path104"
           d="m 490.031,281.5 c -0.202,6.544 -1.264,13.12 -1.78,19.654 -0.543,6.869 -1.495,13.716 -1.876,20.596 -0.027,0.493 0.692,0.466 0.75,0 0.843,-6.836 1.416,-13.729 1.946,-20.596 0.503,-6.507 1.441,-13.129 1.397,-19.654 -0.001,-0.283 -0.428,-0.281 -0.437,0 z"
           style="fill:#dcdde0"
           inkscape:connector-curvature="0" /><path
           id="path106"
           d="m 493.797,282.262 c -0.508,6.969 -1.459,13.837 -1.68,20.837 -0.224,7.07 -0.279,14.143 -0.535,21.212 -0.021,0.574 0.797,0.563 0.836,0 0.485,-7.053 0.336,-14.146 0.488,-21.212 0.15,-6.974 1.02,-13.876 1.297,-20.837 0.011,-0.28 -0.387,-0.274 -0.406,0 z"
           style="fill:#dcdde0"
           inkscape:connector-curvature="0" /><path
           id="path108"
           d="m 497.262,283.517 c -0.249,13.781 -0.905,27.529 -1.523,41.295 -0.032,0.711 0.979,0.7 1.023,0 0.876,-13.726 1.2,-27.539 0.977,-41.295 -0.006,-0.33 -0.471,-0.33 -0.477,0 z"
           style="fill:#dcdde0"
           inkscape:connector-curvature="0" /><path
           id="path110"
           d="m 478.915,279.105 c -2.109,1.566 -4.274,3.054 -6.045,5.015 -0.158,0.176 0.102,0.437 0.26,0.26 1.743,-1.946 3.875,-3.428 5.955,-4.985 0.171,-0.128 0.005,-0.419 -0.17,-0.29 z"
           style="fill:#dcdde0"
           inkscape:connector-curvature="0" /><path
           id="path112"
           d="m 481.884,273.051 c -4.111,2.82 -8.943,4.54 -12.66,7.923 -0.324,0.295 0.118,0.885 0.474,0.613 3.951,-3.011 8.481,-5.115 12.419,-8.138 0.229,-0.176 0.017,-0.57 -0.233,-0.398 z"
           style="fill:#dcdde0"
           inkscape:connector-curvature="0" /><path
           id="path114"
           d="m 479.448,270.812 c -4.785,1.85 -9.972,3.551 -14.118,6.648 -0.338,0.252 -0.039,0.813 0.339,0.58 4.447,-2.744 9.367,-4.377 13.929,-6.872 0.192,-0.104 0.059,-0.437 -0.15,-0.356 z"
           style="fill:#dcdde0"
           inkscape:connector-curvature="0" /><path
           id="path116"
           d="m 475.5,269.059 c -4.603,0.493 -9.01,2.787 -12.938,5.121 -0.412,0.245 -0.045,0.87 0.375,0.641 4.046,-2.204 8.019,-4.543 12.613,-5.386 0.212,-0.039 0.164,-0.399 -0.05,-0.376 z"
           style="fill:#dcdde0"
           inkscape:connector-curvature="0" /></g></g><g
       id="g128"><polygon
         id="polygon122"
         points="331,370.5 312.667,348 309.5,349.166 327.833,372.5 "
         style="fill:#fcc18b" /><path
         id="path124"
         d="m 314.167,357.333 c -1.667,1 -7,-7.333 -7,-7.333 0,0 -3.667,-7.5 -2.667,-8.5 1,-1 5,2.166 6.5,3.5 1.5,1.334 4.333,5.5 4.333,5.5 l -3.167,2 c 10e-4,0 2.871,4.312 2.001,4.833 z"
         style="fill:#414355"
         inkscape:connector-curvature="0" /><path
         id="path126"
         d="m 331.417,371.833 c -0.083,0.834 -1.333,1.75 -2.25,1.667 -1.192,-0.108 -1.75,-0.858 -1.75,-1.917 0,-1.059 1.22,-1.833 2.417,-1.833 1.197,0 1.688,1.029 1.583,2.083 z"
         style="fill:#858fa9"
         inkscape:connector-curvature="0" /></g><g
       id="g148"><path
         id="path130"
         d="m 348.083,421.757 c -1.091,-0.007 -2.661,-0.118 -3.633,0.492 -0.88,0.486 -2.204,0.651 -3.166,1.005 -1.575,0.579 -3.168,0.962 -4.811,1.302 -2.056,0.425 -5.251,0.512 -6.937,1.935 -1.068,0.901 -1.24,2.32 0.246,2.915 2.078,0.831 4.506,0.518 6.685,0.36 2.934,-0.211 5.868,-0.42 8.801,-0.645 1.507,-0.116 4.679,0.485 5.656,-1.013 0.927,-1.422 1.151,-4.968 -0.111,-6.23 -0.582,-0.582 -2.094,-0.118 -2.73,-0.121 z"
         style="fill:#2a9cc8"
         inkscape:connector-curvature="0" /><path
         id="path132"
         d="m 398.013,425.131 c -4.396,-0.361 -8.322,0.037 -11.164,-3.987 -0.031,-0.043 -0.074,-0.067 -0.121,-0.081 -0.377,-0.6 -0.977,-0.899 -1.58,-1.28 -0.062,-0.039 -0.216,-0.547 -0.667,-0.66 -1.516,-0.379 -4.091,1.413 -4.506,2.827 -0.499,1.699 -1.896,6.155 -0.505,7.533 0.658,0.651 2.212,0.482 3.03,0.47 2.428,-0.037 4.838,-10e-4 7.266,0.061 2.627,0.065 5.287,0.318 7.912,0.277 1.772,-0.028 4.053,-0.271 4.792,-2.134 1.004,-2.532 -2.983,-2.904 -4.457,-3.026 z"
         style="fill:#2a9cc8"
         inkscape:connector-curvature="0" /><path
         id="path134"
         d="m 394.684,346.544 c -0.1,-2.593 -0.31,-5.19 -0.626,-7.767 -0.206,-1.677 -0.461,-3.847 -1.575,-5.217 -1.11,-1.366 -2.328,-0.957 -3.854,-0.435 -1.564,0.536 -3.193,0.404 -4.791,0.723 -1.96,0.392 -3.859,1.051 -5.767,1.642 -3.263,1.01 -6.81,1.018 -10.124,1.938 -1.68,0.467 -3.292,1.087 -5.002,1.447 -1.537,0.325 -3.104,-0.006 -4.652,0.175 -1.096,0.128 -1.135,0.684 -2.148,0.431 -0.652,-0.163 -0.933,0.796 -0.343,1.013 0.15,0.888 -0.441,2.23 -0.675,2.979 -0.438,1.402 -0.682,2.859 -0.96,4.302 -0.667,3.463 -0.85,7.002 -1.006,10.519 -0.355,8.003 -0.311,15.931 -1.652,23.858 -1.27,7.506 -3.497,14.81 -4.921,22.29 -0.717,3.77 -1.411,7.543 -2.276,11.283 -0.352,1.522 -0.654,3.058 -1.145,4.543 -0.374,1.133 -1.271,2.284 -1.256,3.482 0.003,0.269 0.179,0.491 0.434,0.569 2.802,0.857 5.634,1.747 8.592,1.711 2.008,-0.024 3.25,-3.634 3.995,-4.962 3.947,-7.036 7.23,-14.312 9.556,-22.041 2.352,-7.818 4.713,-15.588 5.774,-23.71 0.502,-3.842 0.968,-7.661 1.144,-11.531 0.113,-2.485 0.214,-6.127 1.253,-8.744 0.206,12.061 2.433,23.954 3.43,35.958 0.506,6.094 0.167,12.25 0.319,18.357 0.135,5.414 -0.096,11.271 1.362,16.525 0.057,0.205 0.262,0.38 0.482,0.367 1.549,-0.09 3.007,-0.479 4.515,-0.831 1.178,-0.274 2.446,-0.246 3.574,-0.728 1.508,-0.643 2.072,-1.493 2.296,-3.029 0.61,-4.178 0.815,-8.438 1.172,-12.643 1.116,-13.177 1.994,-26.375 3.699,-39.488 0.986,-7.596 1.472,-15.326 1.176,-22.986 z"
         style="fill:#414355"
         inkscape:connector-curvature="0" /><path
         id="path136"
         d="m 447.375,242.25 c 2.78,1.089 6.852,-1.068 8.125,-3.125 1.625,-2.625 1.942,-5.356 3.5,-7.375 2.25,-2.917 3.583,-6.583 0.276,-5.287 0.163,-0.917 0.718,-1.321 0.474,-2.338 -0.25,-1.042 -1.167,-1.292 -1.712,-0.913 -0.1,-0.784 0.587,-1.712 -0.469,-2.529 -0.397,-0.308 -1.901,-0.183 -2.818,0.15 -1.761,0.641 -3.231,1.875 -4.375,3.292 -1.197,1.483 -3.125,4.75 -3.125,8.25 0,0.905 -0.347,4.048 -0.75,4.875 z"
         style="fill:#858fa9"
         inkscape:connector-curvature="0" /><path
         id="path138"
         d="m 331.871,352.963 c -1.231,-0.818 -1.22,-1.541 -1.162,-3.052 0.031,-0.805 0.378,-1.958 0.118,-2.74 -0.061,-0.184 -0.28,-0.362 -0.487,-0.276 -0.427,0.179 -0.907,0.963 -1.244,1.286 -0.881,0.846 -1.712,1.897 -2.538,2.733 -0.105,-0.023 -0.218,-0.006 -0.306,0.087 -3.04,3.214 -7.824,4.488 -10.497,7.975 -1.645,2.146 -0.732,4.603 1.407,4.751 -0.513,1.963 0.846,3.776 2.875,2.636 0.122,1.07 0.875,1.624 2.265,0.996 3.525,-1.591 5.12,-6.033 7.396,-8.916 0.646,-0.818 3.865,-4.354 2.173,-5.48 z"
         style="fill:#858fa9"
         inkscape:connector-curvature="0" /><path
         id="path140"
         d="m 448.225,233.525 c -0.244,-0.307 -0.692,-0.209 -0.949,0 -8.935,7.271 -17.54,15.192 -25.44,23.579 -6.594,7 -12.767,14.455 -19.697,21.13 -2.229,2.148 -4.987,5.005 -8.011,2.811 -2.445,-1.775 -4.637,-2.393 -7.679,-1.901 -2.777,0.449 -5.246,1.33 -8.109,1.182 -2.666,-0.137 -5.293,-0.377 -7.968,-0.4 -4.609,-0.04 -8.63,0.746 -12.648,3.097 -0.31,0.182 -0.32,0.514 -0.176,0.753 -2.046,4.998 -6.156,9.198 -9,13.742 -3.867,6.178 -6.196,13.147 -8.788,19.913 -2.732,7.132 -5.066,14.73 -8.651,21.483 -2.045,3.854 -6.425,8.674 -6.014,13.334 0.075,0.852 1.804,1.522 2.396,1.902 0.911,0.583 1.92,1.505 2.982,1.809 1.677,0.479 3.392,-1.94 4.203,-3.004 5.985,-7.854 10.013,-17.494 13.916,-26.488 2.626,-6.052 5.108,-12.177 7.328,-18.392 -0.132,11.506 -1.401,22.938 -2.08,34.423 -0.025,0.423 0.442,0.763 0.837,0.638 6.699,-2.106 13.896,-1.089 20.769,-2.179 7.011,-1.111 13.741,-3.567 20.707,-4.91 0.253,-0.049 0.407,-0.31 0.418,-0.549 0.419,-9.625 -0.65,-19.627 1.433,-29.104 0.952,-4.333 4.217,-7.305 6.967,-10.615 3.668,-4.417 7.35,-8.829 11.208,-13.082 8.613,-9.494 17.777,-18.484 26.382,-27.986 2.117,-2.337 4.165,-4.736 6.168,-7.172 1.358,-1.652 2.977,-3.331 3.905,-5.285 1.477,-3.111 -2.755,-6.645 -4.409,-8.729 z"
         style="fill:#2a9cc8"
         inkscape:connector-curvature="0" /><path
         id="path142"
         d="m 415,270.333 c -0.229,-1.145 -1.031,-4.418 -3.667,-4.667 -0.983,-0.093 0.833,-2.667 0.333,-4.667 -0.779,-3.117 -2.449,-4 -5.428,-4.439 -0.119,-4.735 -1.551,-8.97 -6.794,-8.847 1.731,-6.533 -5.768,-8.095 -10.938,-6.479 -0.552,-5.719 -7.644,-6.271 -11.723,-3.402 -1.027,-2.79 -3.754,-4.206 -6.794,-3.723 -1.556,0.247 -3.007,0.823 -4.133,1.952 -0.589,0.591 -0.78,1.292 -0.918,2.028 -3.473,-5.97 -13.624,-4.541 -15.643,2.082 -5.693,-3.832 -12.869,-0.19 -14.016,6.657 -7.449,-1.398 -13.383,4.401 -11.392,11.829 -5.22,-2.491 -14.199,6.112 -9.294,11.405 -2.655,0.6 -4.602,2.608 -4.836,5.531 -0.255,3.18 2.306,5.005 5.075,5.408 -3.36,4.812 2.279,9.827 7.441,7.641 0.964,5.424 7.817,6.869 11.728,3.357 1.455,4.995 8.589,4.471 11.333,1.167 3.5,3.333 9.5,2.166 11.5,-2.167 1.861,2.896 7.667,1.5 9.167,-1.833 1.167,3 7.833,3.999 10.167,0.833 1.833,4.333 8.098,3.981 10,1.667 3.161,2.675 7.799,1.922 10.5,-1.334 4.167,2.334 7.897,1.641 10.241,-2.292 0.255,-0.428 0.405,-0.852 0.535,-1.327 0.246,-0.903 0.772,-0.663 1.731,-0.952 1.167,-0.353 2.424,-0.999 3.156,-2.005 1.23,-1.69 0.978,-3.666 0.254,-5.513 -0.188,-0.479 -0.42,-0.935 -0.64,-1.397 0.054,-0.006 0.098,-0.008 0.167,-0.021 0.432,-0.077 0.827,-0.2 1.179,-0.472 1.971,-1.524 2.209,-3.52 1.709,-6.02 z"
         style="fill:#414355"
         inkscape:connector-curvature="0" /><path
         id="path144"
         d="m 329.295,358.546 c -1.635,1.935 -2.786,4.205 -4.403,6.147 -0.728,0.875 -1.683,1.651 -2.644,2.239 -1.54,0.526 -1.451,-0.473 -1.608,-0.862 0.659,-0.968 1.171,-2.123 1.419,-2.64 0.201,-0.418 -0.353,-0.739 -0.619,-0.361 -0.455,0.647 -1.065,1.807 -1.732,2.64 -1.458,1.292 -2.333,0.292 -1.792,-1.458 0.083,-0.36 0.397,-0.826 0.578,-1.138 0.86,-0.573 1.657,-1.405 2.314,-2.054 0.357,-0.353 -0.1,-0.936 -0.531,-0.688 -1.089,0.524 -1.889,1.471 -2.896,2.132 -1.924,0.414 -2.132,-0.586 -2.184,-1.477 0.151,-0.521 0.362,-1.016 0.632,-1.484 0.318,-0.612 0.739,-1.168 1.206,-1.673 0.099,-0.106 -0.046,-0.239 -0.154,-0.154 -1.145,0.899 -3.495,3.713 -1.979,5.256 0.806,0.819 1.447,0.997 2.259,0.755 -0.53,1.137 -0.464,2.284 0.307,3.22 0.875,1.062 1.757,0.741 2.519,-0.053 0.275,0.607 0.798,1.13 1.543,0.982 4.065,-0.806 5.844,-6.171 8.09,-9.004 0.182,-0.227 -0.13,-0.555 -0.325,-0.325 z"
         style="fill:#414355"
         inkscape:connector-curvature="0" /><path
         id="path146"
         d="m 460,225.885 c -0.322,0.009 -0.394,0.009 -0.667,0.115 0.463,-0.844 0.708,-1.542 0.29,-2.51 -0.374,-0.864 -0.843,-1.09 -1.594,-0.892 0.238,-0.589 0.236,-1.152 -0.184,-1.631 -1.01,-1.149 -2.898,-0.295 -4.636,0.575 -1.992,0.998 -3.547,3.442 -4.577,5.306 -0.072,0.131 0.112,0.289 0.215,0.166 1.002,-1.205 1.674,-2.693 2.855,-3.726 2.09,-1.829 5.877,-2.966 5.613,-1.506 -0.109,0.604 -0.564,1.208 -1.15,1.783 -0.971,0.677 -1.904,1.517 -2.47,2.023 -0.226,0.179 -0.433,0.35 -0.601,0.507 0.006,0.005 0.012,0.009 0.018,0.014 -0.472,0.507 0.235,1.331 0.794,0.798 0.654,-0.623 2.58,-2.017 3.612,-3.426 1.42,-0.613 1.53,1.088 0.853,2.353 -0.701,1.308 -1.763,2.415 -2.404,3.751 -0.186,0.388 0.316,0.668 0.567,0.332 0.373,-0.499 0.734,-1.005 1.1,-1.509 0.256,-0.319 0.513,-0.638 0.77,-0.957 1.764,-1.2 2.568,0.115 2.096,1.126 -0.37,1.242 -1.333,2.465 -1.99,3.562 -1.696,2.833 -2.487,6.936 -5.502,8.588 -0.358,0.197 -0.04,0.74 0.319,0.547 2.562,-1.382 3.032,-3.551 4.171,-6.03 1.099,-2.392 3.023,-4.434 3.823,-6.949 0.31,-0.976 -0.031,-2.447 -1.321,-2.41 z"
         style="fill:#414355"
         inkscape:connector-curvature="0" /></g><g
       id="g154"><polygon
         id="polygon150"
         points="592.117,275.331 571.5,290.167 570.167,288.334 590.493,273.049 "
         style="fill:#ffa348" /><polygon
         id="polygon152"
         points="593.5,274.25 590.491,276.554 588.92,274.114 592.083,271.75 "
         style="fill:#414355" /></g><g
       id="g198"><path
         id="path156"
         d="m 619.514,422.513 c -1.733,-0.314 -3.529,-0.412 -5.285,-0.475 -0.896,-0.032 -3.004,0.566 -3.567,0.005 C 610.633,422.01 610.6,422 610.557,422 c -0.002,0 -0.004,0 -0.006,0 -0.034,0 -0.063,-0.025 -0.099,-0.016 -0.011,0.002 -0.02,0 -0.03,0.005 -0.052,0.021 -0.088,0.055 -0.112,0.107 -0.003,0.008 -0.01,0.01 -0.012,0.018 -0.002,0.008 -0.004,0.014 -0.006,0.021 -0.002,0.013 -0.014,0.02 -0.014,0.033 0,0.01 -0.002,0.018 -0.002,0.027 -0.046,0.164 -0.095,0.326 -0.124,0.495 -0.02,0.112 -0.008,0.215 0.022,0.307 -1.069,3.869 -10.129,1.989 -12.929,3.054 -2.495,0.948 -4.567,3.216 -3.243,5.498 1.738,2.996 5.889,2.122 8.832,2.021 4.26,-0.146 8.33,-0.376 12.527,-1.165 1.761,-0.33 6.326,-0.441 6.259,-3.237 -0.044,-1.809 0.325,-6.214 -2.106,-6.655 z"
         style="fill:#858fa9"
         inkscape:connector-curvature="0" /><path
         id="path158"
         d="m 688.46,424.874 c -0.673,-2.657 -2.444,-3.597 -5.09,-3.87 -3.754,-0.388 -8.408,0.01 -10.184,-4.111 -0.052,-0.119 -0.167,-0.124 -0.262,-0.077 -0.103,-0.121 -0.249,-0.202 -0.424,-0.209 -3.229,-0.132 -6.414,1.179 -9.396,2.243 -2.228,0.795 -2.727,3.391 -3.171,5.457 -0.302,1.406 -0.521,4.109 1.441,4.193 4.062,0.173 20.095,0.82 23.877,-0.218 1.302,-0.356 3.874,-0.782 3.209,-3.408 z"
         style="fill:#858fa9"
         inkscape:connector-curvature="0" /><path
         id="path160"
         d="m 676.689,407.669 c -0.179,-3.166 -0.584,-6.314 -0.894,-9.469 -0.711,-7.256 -2.403,-14.358 -4.218,-21.417 -0.65,-2.529 -1.437,-5.02 -2.079,-7.552 -0.747,-2.942 -0.929,-5.892 -1.128,-8.907 -0.403,-6.129 0.316,-12.27 -0.21,-18.395 -0.948,-11.027 -4.168,-21.659 -9.224,-31.462 -1.941,-3.763 -3.957,-7.255 -7.372,-9.853 -1.225,-0.932 -2.509,-1.519 -4.05,-1.338 -2.03,0.238 -3.576,2.377 -5.218,3.348 -4.592,2.715 -10.286,3.782 -14.486,7.187 -1.467,1.189 -3.067,2.118 -4.145,3.708 -0.105,0.156 -0.485,1.488 -0.521,1.499 -0.278,0.079 -0.337,0.113 -0.315,0.127 -0.474,0.09 -0.559,0.523 -0.249,0.736 -0.86,3.008 -2.293,5.939 -3.282,8.923 -1.123,3.386 -1.592,6.857 -1.956,10.396 -0.789,7.673 -0.501,15.537 -0.365,23.237 0.146,8.264 -1.946,15.821 -4.383,23.632 -2.196,7.045 -2.492,14.452 -3.099,21.758 -0.312,3.762 -0.609,7.521 -0.732,11.295 -0.099,3.021 -0.097,5.047 -0.097,8.045 0,2.5 3.073,2.747 4.05,2.956 2.6,0.557 5.784,1.655 8.478,1.13 3.954,-0.771 5.224,-4.896 5.915,-8.369 0.394,-1.976 0.608,-3.986 0.953,-5.971 0.581,-3.354 2.738,-6.337 4.543,-9.139 5.641,-8.758 7.749,-20.462 6.396,-30.679 -0.387,-2.917 -0.913,-5.952 -0.29,-8.868 0.581,-2.716 2.771,-5.178 3.778,-7.78 1.685,-4.353 2.128,-8.698 2.249,-13.201 3.255,13.058 -0.521,27.267 4.998,39.849 0.792,1.805 1.775,3.546 2.388,5.421 0.611,1.87 0.69,3.897 0.741,5.849 0.101,3.77 0.018,7.526 0.567,11.272 0.859,5.856 2.211,10.88 4.567,16.363 1.421,3.306 3.833,3.5 9.511,1.851 2.349,-0.683 4.446,-2.062 6.593,-3.232 1.581,-0.861 2.735,-1.782 2.93,-3.703 0.307,-3.026 -0.174,-6.219 -0.344,-9.247 z"
         style="fill:#fcc18b"
         inkscape:connector-curvature="0" /><g
         id="g168"><path
           id="path162"
           d="m 606.667,253.333 c -0.167,0.5 -0.834,0.833 -1.334,1.167 -1.166,0.667 -2,1.333 -3,2.333 -1.666,1.667 -2.833,3.333 -4,5.5 -1.666,3.667 -2.666,7.5 -3,11.667 -0.333,4.333 0,8.667 0.5,12.834 0,0.666 0.5,2 0.334,2.5 -0.167,1.333 -1.625,-10e-4 -2.292,-0.334 -1,-0.5 -4.208,-2.333 -4.208,-2.333 -0.667,3.083 -0.884,4.553 -1.417,5.708 -0.75,1.625 -1.875,2.75 -2.875,3.375 -0.721,0.45 1.375,1.209 1.875,1.875 0.5,0.5 1.417,0.875 2.083,2.042 -1.5,0.167 -3.333,-0.833 -4.666,-1.167 -1,-0.166 -2,-0.5 -3,-0.666 -0.834,-0.334 -3.958,-1.334 -4.792,-1.334 2.5,3.25 1.833,4.958 1,6.625 -0.667,1.333 -1.75,2.375 -4.75,3 1.834,0.667 9.542,5.042 11.542,5.875 3.166,1.167 6.5,3.459 9.833,4.125 3.5,0.667 7.321,0.52 10.75,-1.25 3.875,-2 6.417,-7.041 7.083,-7.541 0.167,2.166 2.876,4.875 4.042,6.541 1.5,1.834 2.792,2.792 4.292,4.459 1,1.166 1,0.833 2.166,0 1,-0.5 2.167,-1.167 3.334,-1.667 1.666,-1 3.5,-1.667 5.166,-2.667 3.334,-1.833 6.667,-3.833 10.167,-5.5 1.833,-0.833 3.667,-1.5 5.333,-2.5 1.834,-0.833 6.167,-3.375 6.667,-3.375 0.167,-0.833 -1.167,-1.625 -1.667,-2.291 -0.5,-1 -2.041,-6.084 -2.208,-7.084 -0.5,-2 -3.125,-10.25 -4.458,-14.583 -2.5,-7.333 -4.5,-15.667 -9.167,-22 -1.833,-2.5 -4.5,-4.333 -7,-5.833 -2.333,-1.5 -5.667,-2.833 -8.333,-3.333 -2.5,-0.5 -6.167,-0.333 -8.5,0.833 -1,0.5 -2.834,1.167 -3.5,2 -0.5,0.333 -0.5,1.333 -0.834,1.833 -0.333,0.5 -0.833,0.833 -1,1.5 z"
           style="fill:#ffa348"
           inkscape:connector-curvature="0" /><g
           id="g166"><path
             id="path164"
             d="m 606.472,253.219 c -1.011,1.333 -3.143,2.153 -4.4,3.353 -1.292,1.232 -2.347,2.684 -3.297,4.186 -2.299,3.635 -3.318,8.135 -3.809,12.354 -0.529,4.545 -0.444,9.813 0.486,14.309 0.161,0.776 0.297,2.231 -0.946,1.399 -0.463,-0.31 -0.969,-0.561 -1.453,-0.836 -1.039,-0.592 -2.067,-1.203 -3.095,-1.815 -0.312,-0.186 -0.761,-0.018 -0.847,0.345 -0.393,1.65 -0.664,3.335 -1.163,4.957 -0.598,1.943 -2.19,2.685 -3.248,4.183 -0.129,0.183 -0.091,0.429 0,0.614 0.758,1.536 3.154,2.215 4.193,3.656 0.146,-0.255 0.293,-0.511 0.439,-0.767 -2.445,0.066 -5.138,-1.274 -7.54,-1.779 -1.669,-0.351 -3.187,-1.227 -4.918,-1.402 -0.383,-0.038 -0.671,0.479 -0.452,0.789 2.864,4.06 1.344,7.698 -3.442,8.838 -0.566,0.135 -0.463,0.865 0,1.045 6.834,2.658 12.895,7.082 19.845,9.561 4.229,1.508 9.374,0.958 13.248,-1.223 3.096,-1.742 4.196,-4.998 6.616,-7.295 -0.281,-0.074 -0.562,-0.148 -0.843,-0.223 0.602,3.592 4.343,7.146 6.843,9.562 0.908,0.879 1.87,2.693 3.3,2.485 0.674,-0.099 1.733,-1.073 2.367,-1.405 1.17,-0.614 2.353,-1.194 3.526,-1.8 5.144,-2.656 10.115,-5.771 15.438,-8.062 2.06,-0.887 4.045,-1.914 6.023,-2.968 1.31,-0.696 2.821,-1.865 4.289,-2.173 0.197,-0.041 0.394,-0.274 0.367,-0.482 -0.172,-1.39 -1.426,-1.744 -1.917,-2.975 -0.533,-1.338 -0.941,-2.732 -1.36,-4.109 -0.761,-2.501 -1.407,-5.035 -2.177,-7.536 -2.426,-7.891 -4.575,-16.066 -7.813,-23.665 -1.638,-3.843 -3.597,-7.605 -6.675,-10.492 -3.05,-2.861 -7.017,-4.952 -10.957,-6.262 -3.273,-1.088 -7.387,-1.458 -10.63,-0.046 -1.243,0.542 -2.919,1.028 -3.899,2 -1.03,1.023 -1.688,2.507 -2.275,3.813 0.358,0 0.716,0 1.074,0 -0.056,-0.111 -0.111,-0.222 -0.167,-0.333 -0.356,-0.717 -1.428,-0.088 -1.072,0.627 0.056,0.111 0.11,0.222 0.165,0.334 0.195,0.396 0.885,0.416 1.074,0 0.343,-0.755 1.034,-1.298 1.269,-2.098 0.424,-1.444 1.551,-1.943 2.826,-2.545 3.168,-1.497 6.365,-1.861 9.804,-1.172 6.896,1.381 13.097,6.159 16.522,12.174 3.256,5.716 4.846,12.26 6.935,18.449 1.52,4.501 2.907,9.086 4.208,13.656 0.835,2.933 1.091,6.936 3.396,9.098 1.017,0.953 0.982,0.548 -0.077,1.062 -0.98,0.475 -1.931,1.014 -2.889,1.53 -2.401,1.294 -4.825,2.506 -7.332,3.585 -6.027,2.593 -11.625,6.265 -17.509,9.172 -0.85,0.42 -2.644,1.996 -3.5,1.087 -1.039,-1.103 -2.141,-2.14 -3.199,-3.223 -1.912,-1.955 -4.546,-4.811 -5.005,-7.555 -0.066,-0.393 -0.592,-0.461 -0.843,-0.223 -2.189,2.078 -3.34,4.898 -5.857,6.781 -4.588,3.432 -11.146,2.487 -15.958,0.23 -3.09,-1.45 -6.199,-2.852 -9.213,-4.456 -2.52,-1.342 -5.018,-2.882 -7.679,-3.931 0,0.349 0,0.696 0,1.045 5.373,-1.266 7.427,-5.849 4.058,-10.412 -0.15,0.263 -0.302,0.525 -0.452,0.789 1.873,0.148 3.593,1.06 5.418,1.41 2.357,0.452 4.633,1.717 7.04,1.742 0.37,0.004 0.656,-0.442 0.439,-0.767 -0.672,-1.01 -1.572,-1.635 -2.41,-2.487 -1.191,-1.213 -1.36,-0.687 -0.022,-2.052 2.049,-2.092 2.367,-5.327 2.883,-8.051 -0.282,0.115 -0.564,0.229 -0.847,0.345 1.05,0.573 2.104,1.141 3.162,1.699 0.879,0.464 2.095,1.498 3.108,1.498 0.803,0 0.948,-0.783 0.996,-1.416 0.069,-0.932 -0.358,-2.081 -0.466,-3.008 -0.175,-1.51 -0.303,-3.024 -0.406,-4.541 -0.385,-5.636 0.118,-11.221 1.984,-16.572 0.939,-2.692 2.413,-5.05 4.305,-7.172 1.401,-1.571 3.712,-2.44 4.803,-4.206 0.159,-0.254 -0.219,-0.453 -0.39,-0.227 z"
             style="fill:#ffa348"
             inkscape:connector-curvature="0" /></g></g><g
         id="g174"><g
           id="g172"><path
             id="path170"
             d="m 589.719,286.445 c 4.344,3.057 8.668,5.286 14.019,5.946 4.963,0.612 7.645,-4.609 8.896,-8.524 1.489,-4.659 1.475,-9.807 2.034,-14.633 0.532,-4.586 1.544,-9.576 6.414,-11.19 0.311,-0.103 0.277,-0.634 -0.081,-0.599 -6.75,0.671 -6.862,10.671 -7.452,15.607 -0.715,5.988 -1.317,13.552 -6.839,17.244 -2.483,1.661 -6.865,0.146 -9.452,-0.496 -2.698,-0.67 -4.829,-2.588 -7.31,-3.745 -0.265,-0.124 -0.469,0.221 -0.229,0.39 z"
             style="fill:#414355"
             inkscape:connector-curvature="0" /></g></g><g
         id="g180"><g
           id="g178"><path
             id="path176"
             d="m 591.893,301.524 c 3.323,3.115 7.461,5.09 11.706,6.648 3.897,1.431 7.152,2.149 11.141,0.536 5.389,-2.179 7.875,-6.935 10.312,-11.858 1.231,-2.489 2.698,-4.865 3.722,-7.456 1.005,-2.544 1.299,-5.236 2.598,-7.678 0.22,-0.412 -0.356,-0.916 -0.675,-0.521 -1.089,1.349 -1.508,2.998 -1.948,4.649 -0.629,2.361 -1.542,4.509 -2.684,6.669 -2.605,4.926 -4.961,10.595 -9.654,13.865 -3.954,2.755 -7.71,2.568 -12.002,1.174 -4.312,-1.4 -8.712,-3.438 -12.301,-6.244 -0.151,-0.117 -0.363,0.079 -0.215,0.216 z"
             style="fill:#414355"
             inkscape:connector-curvature="0" /></g></g><path
         id="path182"
         d="m 588.151,283.176 c -0.395,-2.037 -0.96,-3.779 -2.502,-5.211 -2.678,-2.487 -6.493,-2.34 -9.681,-0.777 -1.504,0.737 -2.562,1.625 -2.938,2.781 -0.226,0.696 0.587,0.402 0.188,0.875 -1.188,1.406 -1.007,1.977 -0.938,2.375 0.129,0.742 0.725,0.43 0.719,0.969 -0.005,0.434 -0.767,1.364 -0.844,1.781 -0.375,2.031 3.521,3.238 6.248,2.805 0.651,3.298 3.903,7.754 7.665,6.827 1.344,-0.331 2.025,-2.774 2.482,-3.856 0.489,-1.155 1.264,-2.487 1.324,-3.827 0.002,-0.473 0.019,-0.896 -0.219,-1.199 -0.87,-1.116 -1.236,-2.162 -1.504,-3.543 z"
         style="fill:#414355"
         inkscape:connector-curvature="0" /><path
         id="path184"
         d="m 574.382,294.852 c -1.679,-1.721 -3.492,-3.176 -5.683,-4.19 -3.386,-1.566 -6.711,1.079 -9.186,3.119 -1.61,1.326 -4.854,3.977 -4.446,6.423 0.569,3.41 4.161,0.769 5.58,-0.415 2.063,-1.721 4.377,-3.088 7.136,-2.421 1.28,0.614 1.39,1.323 0.328,2.126 -0.475,0.135 -1.07,0.069 -1.562,0.047 -0.681,-0.031 -1.291,-0.108 -1.974,-0.034 -1.558,0.172 -3.719,3.348 -1.432,3.962 0.659,0.177 1.284,0.17 1.965,0.136 1.52,-0.077 2.698,0.711 3.953,1.45 1.833,1.081 3.989,0.862 6.038,0.747 0.094,0.115 0.236,0.156 0.369,0.125 0.255,0.056 0.522,-0.104 0.521,-0.426 10e-4,0.259 0.938,-0.448 0.905,-0.417 0.675,-0.661 1.139,-1.337 1.589,-2.165 0.688,-1.266 0.856,-2.576 0.088,-3.807 -0.97,-1.557 -2.901,-2.94 -4.189,-4.26 z"
         style="fill:#414355"
         inkscape:connector-curvature="0" /><path
         id="path186"
         d="m 610.709,248.212 c -1.538,-2.975 -2.666,-5.702 -2.801,-9.108 -0.107,-2.72 0.461,-5.4 0.622,-8.104 0.24,-4.02 -3.896,-7.066 -6.461,-9.553 -3.915,-3.797 -7.342,-6.935 -12.731,-8.472 -4.215,-1.202 -8.624,-1.228 -12.666,0.451 -1.749,0.726 -5.721,2.243 -5.995,4.608 -0.175,0.094 -0.244,0.275 -0.229,0.465 -0.016,0.197 0.061,0.383 0.249,0.473 -0.017,0.096 -0.034,0.192 -0.051,0.288 -0.026,0.014 -0.054,0.03 -0.078,0.057 -2.13,2.279 -3.002,5.876 -3.31,8.892 -0.438,4.296 1.982,8.41 4.299,11.8 0.497,0.728 1.106,1.352 1.59,2.094 0.713,1.095 -0.229,1.878 -0.566,2.821 -0.314,0.881 -0.238,2.047 0.385,2.777 1.466,1.717 3.806,1.056 5.422,-0.087 2.219,3.481 5.039,6.697 9.375,7.163 4.012,0.43 7.367,-1.148 10.52,-3.339 1.385,2.435 2.639,4.964 3.671,7.564 0.357,0.901 0.573,1.512 1.641,1.534 2.705,0.057 5.944,-3.139 7.752,-4.851 2.552,-2.419 0.783,-4.726 -0.638,-7.473 z"
         style="fill:#414355"
         inkscape:connector-curvature="0" /><path
         id="path188"
         d="m 606.729,205.829 c -0.652,-0.167 -1.416,-0.016 -2.07,0.07 -0.995,0.131 -1.358,-1.411 -1.895,-1.913 -1.252,-1.174 -2.553,-2.002 -4.162,-2.605 -1.473,-0.552 -3.046,-0.817 -4.613,-0.784 -1.478,0.031 -2.565,1.477 -3.688,0.297 -2.049,-2.153 -5.586,-3.292 -8.517,-2.593 -1.648,0.393 -3.186,1.269 -4.441,2.415 -0.777,0.709 -2.322,3.748 -3.217,3.744 -0.071,0 -0.131,0.016 -0.184,0.041 -9.787,-3.001 -17.547,10.977 -11.266,18.424 0.922,1.093 3.82,3.358 5.403,2.754 1.058,-0.404 1.815,-1.1 2.655,-1.853 1.646,-1.477 3.373,-2.531 5.259,-3.662 3.378,-2.025 7.787,-2.841 11.325,-0.862 2.574,1.44 4.187,4.287 5.644,6.738 2.744,4.617 6.114,8.985 10.717,11.892 0.938,0.593 2.529,1.497 3.703,1.132 1.31,-0.407 1.201,-1.823 1.238,-2.987 0.094,-2.892 1.855,-5.291 2.943,-7.893 1.374,-3.286 2.136,-6.505 2.141,-10.075 0.008,-4.355 -2.226,-11.066 -6.975,-12.28 z"
         style="fill:#2a9cc8"
         inkscape:connector-curvature="0" /><path
         id="path190"
         d="m 580.375,236.625 c 0,1.104 -1.271,2.25 -2.375,2.25 -1.104,0 -2,-0.896 -2,-2 0,-1.104 1.021,-2.375 2.125,-2.375 1.104,0 2.25,1.021 2.25,2.125 z"
         style="fill:#858fa9"
         inkscape:connector-curvature="0" /><g
         id="g194"><path
           id="path192"
           d="m 571.191,232.327 c 1.621,-0.783 2.159,-2.805 3.767,-3.784 2.241,-1.365 5.415,-0.309 7.329,1.071 0.378,0.272 0.737,-0.235 0.577,-0.577 -1.025,-2.189 -4.375,-3.154 -6.626,-2.689 -3.164,0.653 -4.532,2.721 -5.604,5.552 -0.128,0.34 0.29,0.557 0.557,0.427 z"
           style="fill:#2a9cc8"
           inkscape:connector-curvature="0" /></g><path
         id="path196"
         d="m 581.25,288.18 c -1.955,0.053 -3.782,0.377 -5.738,0.088 -0.847,-0.125 -1.763,-0.29 -2.312,-1.014 -0.748,-0.984 -0.645,-2.018 0.104,-2.829 0.263,0.064 0.529,0.102 0.767,0.119 1.156,0.087 2.322,-0.148 3.448,-0.378 1.266,-0.258 2.583,-0.358 3.821,-0.713 0.421,-0.121 0.241,-0.778 -0.18,-0.656 -1.229,0.357 -2.562,0.451 -3.817,0.731 -0.707,0.158 -2.729,0.69 -3.95,0.376 -0.005,-0.002 -0.008,-0.003 -0.013,-0.004 -0.52,-0.138 -0.895,-0.428 -0.95,-0.974 -0.081,-0.789 0.259,-1.339 0.786,-1.739 0.608,0.136 1.531,-0.153 1.901,-0.248 2.098,-0.531 4.128,-1.418 6.206,-2.049 0.285,-0.087 0.157,-0.578 -0.161,-0.541 -0.025,0.003 -0.162,0.009 -0.162,0.012 0,-10e-4 0,-10e-4 0,-10e-4 0,0.002 0.07,0.003 0.061,0.005 -0.775,0.094 -1.502,0.244 -2.269,0.42 -0.509,0.07 -0.996,0.143 -1.492,0.25 -1.091,0.237 -2.146,0.61 -3.222,0.912 -0.628,0.176 -0.954,0.381 -0.486,-0.494 0.275,-0.514 0.753,-0.955 1.175,-1.351 1.146,-1.074 2.87,-1.295 4.271,-1.91 0.085,-0.037 0.022,-0.162 -0.06,-0.143 -1.763,0.402 -3.394,0.753 -4.827,1.911 -0.802,0.647 -1.805,1.668 -1.474,2.788 0.042,0.143 0.131,0.237 0.237,0.311 -0.501,0.466 -0.838,1.062 -0.944,1.867 -0.091,0.691 0.31,1.091 0.835,1.325 -1.254,1.062 -1.356,2.676 0.01,3.933 0.731,0.673 2.19,0.681 3.122,0.78 1.801,0.193 3.514,-0.078 5.312,-0.145 0.412,-0.013 0.415,-0.65 10e-4,-0.639 z"
         style="fill:#2a9cc8"
         inkscape:connector-curvature="0" /></g></g></svg>
